<svg xmlns="http://www.w3.org/2000/svg" version="1.1" xmlns:xlink="http://www.w3.org/1999/xlink" xmlns:svgjs="http://svgjs.com/svgjs" width="1000" height="1000"><rect width="1000" height="1000" rx="350" ry="350" fill="#5f7e30"></rect><g transform="matrix(1,0,0,1,0,0)"><svg xmlns="http://www.w3.org/2000/svg" version="1.1" xmlns:xlink="http://www.w3.org/1999/xlink" xmlns:svgjs="http://svgjs.com/svgjs" width="600px" height="976px"><svg xmlns="http://www.w3.org/2000/svg" version="1.1" width="600px" height="976px" viewBox="0 0 600 976"> <g id="layer1"> <g style="fill:rgb(0,0,0); fill-opacity:1.0; stroke-linejoin: miter"> <path d="M373.73285,402.12952C374.03387,402.12952,374.36063,402.24875,374.91547,402.45114C376.10614,402.86703,376.67328,403.80576,377.1859,406.3243C377.69904,408.88242,377.17944,411.02206,375.8819,411.358C375.4101,411.48373,374.58978,412.04904,374.08466,412.56992C373.61896,413.0903,372.91522,413.5355,372.5205,413.5416C372.16534,413.5471,371.58002,413.99033,371.2334,414.54843C370.88672,415.1063,370.41974,415.54782,370.2224,415.55087C370.0251,415.55392,369.28314,416.07858,368.58313,416.76047C367.88242,417.40298,367.10165,417.96768,366.86484,417.97134C366.62802,417.975,366.12167,418.41702,365.77493,418.97513C365.4283,419.5331,364.9219,419.97513,364.60617,419.98C364.32993,419.98428,363.90244,420.42508,363.67416,420.98123C363.4459,421.5375,363.0184,421.9783,362.70267,421.9832C362.42642,421.98746,361.91885,422.35062,361.53085,422.79092C360.98868,423.47037,360.39853,423.5978,357.991,423.63504C357.84415,423.6373,357.7021,423.63843,357.5647,423.63843C355.8188,423.63843,354.82065,423.45483,354.1924,423.06192C353.4396,422.55975,351.16794,422.23148,349.36023,422.23148C348.39032,422.23148,347.55396,422.326,347.15744,422.53885C346.25766,423.06595,339.408,424.31644,337.4741,424.34634C336.6453,424.35904,335.8608,424.68704,335.434,425.16727C335.04605,425.60757,334.06662,426.09634,333.23965,426.22757C332.2949,426.40005,331.70834,426.76443,331.59665,427.20035C331.48428,427.59683,330.89902,428.0402,330.19107,428.2089C329.52255,428.3771,328.97488,428.70145,328.97916,428.9777C328.98947,429.6486,325.98032,431.62943,324.9147,431.6459C324.90723,431.64603,324.8997,431.6461,324.8921,431.6461C324.41864,431.6461,323.72134,431.423,323.36758,431.15652C322.56912,430.5767,322.25388,428.05508,322.9606,427.80728C323.23563,427.72403,323.69894,427.0458,324.00308,426.29117C324.30728,425.5364,324.73227,424.93765,324.9296,424.9346C325.1664,424.93094,325.5914,424.33218,325.8962,423.61697C326.16086,422.86282,327.24405,421.42484,328.21432,420.34415C329.22458,419.30215,330.19302,418.1028,330.4237,417.70444C330.61438,417.26743,331.04364,416.94492,331.3199,416.94064C331.63562,416.93576,331.94586,416.57565,332.05695,416.1002C332.1687,415.66428,332.635,415.18332,333.06732,415.0582C333.53906,414.93246,333.8894,414.6113,333.88452,414.2955C333.88025,414.01926,334.3059,413.46017,334.8141,413.13644C335.32166,412.7733,335.82507,412.13388,335.93677,411.69797C336.0484,411.26193,336.5147,410.78098,336.94702,410.65585C337.41888,410.53024,337.76794,410.1301,337.76184,409.73544C337.74963,408.94614,339.4558,406.9459,340.1662,406.9349C340.4425,406.93063,346.2041,406.80234,352.99127,406.61862C364.9881,406.35458,365.30322,406.31027,366.47443,405.46323C367.09802,404.94028,368.31293,404.369,369.13934,404.19833C369.9651,403.98813,371.25897,403.41562,372.0022,402.96982C372.923,402.3743,373.30148,402.12952,373.73285,402.12952 Z M249.60536,416.3572C249.85374,416.3572,250.10272,416.36273,250.34457,416.3741C253.978,416.47592,254.94955,418.0399,255.07977,423.91995C255.11267,426.0513,255.32764,427.19278,255.97742,428.36697C256.62714,429.5413,256.9666,431.0757,257.2096,434.03275C257.4016,436.2404,257.75085,438.40628,257.99432,438.8367C258.2378,439.26724,258.58643,441.3936,258.77722,443.52237C258.92908,445.6912,259.32025,448.01428,259.64697,448.71985C260.30402,450.36768,259.7072,452.62708,258.2998,453.51733C257.7527,453.8811,256.97186,454.44568,256.54382,454.84705C256.11517,455.20898,255.33252,455.6554,254.78241,455.82178C254.2323,455.98816,253.48914,456.43384,253.06049,456.79565C252.55414,457.2378,251.25592,457.53418,248.53516,457.734C245.73602,457.9746,244.31946,458.27283,243.10571,458.9231C241.92253,459.58588,239.42177,459.96585,237.38185,459.96585C236.04785,459.96585,234.91093,459.80334,234.46844,459.45117C233.58923,458.75427,233.79004,453.85596,234.75354,452.34094C235.09961,451.74353,235.5495,450.1969,235.80444,448.81128C236.02057,447.46585,236.51105,445.9976,236.89966,445.59695C237.32709,445.15604,237.66406,443.96658,237.83759,442.42422C237.97235,440.92203,238.34814,439.69254,238.77557,439.25162C239.16418,438.85086,239.53998,437.62125,239.67834,436.35587C239.81738,435.1299,240.22961,433.70255,240.61694,433.2228C241.04254,432.6636,241.41528,431.2366,241.58948,429.7338C241.68658,428.35062,242.13403,426.64627,242.47949,426.0093C242.86383,425.33218,243.34888,423.50894,243.52185,421.92715C243.9078,418.80246,244.87259,417.36642,247.07181,416.62192C247.51619,416.45547,248.55542,416.3572,249.60536,416.3572 Z M128.34319,444.1566C131.35107,444.1566,133.2361,444.63416,133.58768,445.49332C133.7109,445.80728,133.93082,447.26443,134.07175,448.7229C134.25217,450.1808,134.72769,452.8578,135.15097,454.70667C135.57425,456.55554,136.08987,459.2716,136.23203,460.80896C136.41306,462.30627,136.87881,464.3518,137.28879,465.3324C137.69864,466.313,138.20206,468.23962,138.34238,469.65857C138.56595,471.35266,138.93881,472.4917,139.46097,473.07593C139.94254,473.58167,140.35483,474.7201,140.49033,475.82336C140.62515,476.8871,141.07755,478.06445,141.51901,478.53137C141.92099,478.99878,142.41104,480.05713,142.5422,480.88416C142.67343,481.71106,143.2084,483.12415,143.6954,483.985C144.2219,484.84534,144.75381,486.0609,144.88199,486.69055C145.04959,487.31958,145.49832,488.26013,145.90097,488.7671C146.34238,489.234,146.79355,490.33252,146.9636,491.1194C147.1337,491.90625,147.58481,493.00464,147.98685,493.47217C148.38943,493.97913,148.87827,494.9585,149.00766,495.6671C149.17642,496.375,149.50375,497.12,149.70535,497.3933C150.6708,498.56274,148.14987,501.4834,146.13705,501.5144C146.13194,501.5145,146.1268,501.51453,146.12164,501.51453C144.89256,501.51453,142.3883,499.27524,141.53568,497.5194C141.12753,496.65723,140.5234,495.87695,138.67868,494.0105C138.19772,493.5442,137.71194,492.7622,137.54678,492.29102C137.38162,491.81982,136.93954,491.31348,136.58249,491.20056C136.22543,491.08752,135.3851,490.35046,134.78024,489.53088C133.37149,487.77625,130.76413,485.09253,128.32437,483.03784C127.32431,482.1848,125.683624,480.7494,124.68228,479.8175C123.64562,478.92862,122.572105,478.197,122.252396,478.197C122.251335,478.197,122.25028,478.197,122.24924,478.19702C122.24828,478.19702,122.24733,478.19705,122.24636,478.19705C121.96662,478.19705,121.05276,477.58105,120.25394,476.80664L118.77237,475.44775L119.02292,471.21985C119.14487,468.88904,119.2601,466.1239,119.3226,465.057C119.38205,463.79285,119.64493,462.9203,120.03537,462.63794C120.38632,462.35608,120.65402,461.79932,120.64731,461.36523C120.640656,460.93103,121.0571,459.7798,121.55557,458.8246C122.20645,457.51184,122.50021,456.0863,122.65494,453.32043C122.940765,448.81567,123.37845,446.4799,124.187164,445.16458C124.76572,444.28714,125.08023,444.2034,127.882416,444.1602C128.03879,444.15778,128.1924,444.1566,128.34319,444.1566 Z M507.6691,31.108656C506.11707,31.108656,501.45694,32.26629,501.06445,32.819313C500.83252,33.13865,499.77722,33.825905,498.75952,34.394386C497.1554,35.32712,496.2107,35.499485,490.80786,35.85935C485.56363,36.255955,484.53995,36.42966,483.6036,37.15476C482.97885,37.598606,481.7634,38.13059,480.8574,38.263035C479.95212,38.43491,479.1287,38.80283,479.01468,39.080906C478.90054,39.358982,478.08206,40.042816,477.22226,40.608734C475.18832,41.82431,470.21317,46.87521,468.9424,48.947598C468.44217,49.784267,467.8605,50.464443,467.66318,50.467495C467.4658,50.470547,467.1968,50.948326,467.04807,51.54281C466.93887,52.13668,466.47617,52.854454,466.0858,53.13668C465.69534,53.41903,465.27396,54.2546,465.16782,55.04574C465.02145,55.798058,464.59952,56.594074,464.20853,56.836994C463.81686,57.040485,463.35605,57.876545,463.21036,58.668415C463.1041,59.45943,462.6476,60.571857,462.22256,61.170612C461.64334,62.0085,461.4291,63.47249,461.0425,69.12361C460.82474,72.91682,460.69437,77.26118,460.7971,78.79926C461.40524,87.5141,462.13657,93.97698,462.67404,95.54778C463.41678,97.6286,464.15427,107.052185,463.7573,109.46624C463.4362,111.68194,461.837,115.49639,460.78903,116.657524C460.01538,117.495255,459.71423,118.482635,460.1804,118.482635C460.1821,118.482635,460.18384,118.48263,460.18558,118.4826C460.73813,118.47405,462.7321,117.219536,462.7266,116.86443C462.72354,116.667046,463.11398,116.3847,463.5851,116.21941C464.0958,116.053764,464.9155,115.448906,465.49893,114.88726C467.09213,113.24407,468.69205,112.03521,469.67508,111.783134C470.14688,111.6574,470.53604,111.296074,470.53122,110.98028C470.52695,110.70403,470.95554,110.34222,471.5057,110.175835C472.05637,110.04888,472.72055,109.60442,472.99088,109.205376C473.2222,108.84661,473.88455,108.28363,474.43277,107.99896C474.9811,107.71417,475.64352,107.151184,475.91367,106.75226C476.145,106.39337,476.9277,105.94708,477.5568,105.7796C478.22525,105.61127,478.73282,105.24823,478.72794,104.932434C478.72305,104.61664,479.2684,104.13458,479.89682,103.92743C480.56406,103.68024,481.0704,103.23834,481.06552,102.92255C481.06125,102.6463,481.44864,102.166565,481.9186,101.922424C482.38858,101.67828,483.8701,100.47113,485.23373,99.30536C486.5968,98.099915,487.88458,97.13275,488.08197,97.1297C488.3188,97.12604,488.47296,96.88678,488.46808,96.570984C488.46317,96.2553,488.81046,95.73675,489.23972,95.41424C489.66965,95.13128,490.5233,94.170586,491.14136,93.292656C491.76,92.454155,492.80548,91.135185,493.46497,90.37494C494.12427,89.61481,494.66345,88.737976,494.65918,88.46173C494.6549,88.185486,495.0818,87.70514,495.6306,87.45978C496.17957,87.21442,496.6057,86.69464,496.60022,86.33942C496.59473,85.984314,496.9402,85.34723,497.4071,84.905945C497.8352,84.50458,498.45276,83.5871,498.71802,82.872375C499.0227,82.15704,499.5266,81.55707,499.8424,81.552185C500.19763,81.54669,500.4696,81.266174,500.46484,80.9505C500.45935,80.595276,500.84363,79.9184,501.34875,79.397285C501.85388,78.87629,502.4707,77.91938,502.73682,77.24409C503.0027,76.56892,503.54236,75.731514,503.97046,75.33027C504.35962,74.96894,504.7063,74.41096,504.70276,74.17414C504.69238,73.50324,505.5952,73.17341,507.48962,73.14423C507.55627,73.1432,507.62042,73.142654,507.68216,73.142654C508.79047,73.142654,509.13174,73.32047,509.5177,74.0998C509.76123,74.64481,510.3145,75.06837,510.70868,75.06837C510.71143,75.06837,510.71417,75.068344,510.71692,75.068306C510.719,75.068275,510.72107,75.06826,510.72318,75.06826C511.122,75.06826,512.1118,75.64285,512.94775,76.376045L514.4287,77.69538L514.5171,83.41815C514.58105,87.562195,514.765,89.2569,515.12756,89.72504C515.44885,90.07538,515.87573,92.16094,516.1472,94.40691C516.4189,96.65289,516.97516,99.447205,517.38873,100.66461C517.8022,101.88202,518.2663,103.809265,518.4423,104.99078C518.61847,106.172424,519.19904,107.97931,519.7292,109.07647C520.2192,110.13482,520.6728,111.391045,520.6801,111.86468C520.6868,112.29876,521.05304,113.003716,521.4932,113.39178C521.8934,113.7409,522.50055,114.71844,522.7496,115.50408C523.038,116.289116,523.5645,117.14947,524.003,117.41912C524.4019,117.68926,524.7254,118.19744,524.7303,118.513115C524.7351,118.825775,525.00946,119.05677,525.3211,119.05677C525.32434,119.05677,525.32764,119.05675,525.3309,119.056694C525.33514,119.056625,525.3394,119.056595,525.3436,119.056595C526.95026,119.056595,527.1763,123.77326,525.76605,126.7874C524.08246,130.24773,523.9379,143.90897,525.3631,162.0856C525.8445,167.7506,526.1485,169.56621,526.65955,169.56621C526.66064,169.56621,526.6618,169.5662,526.6629,169.56618L526.6636,169.56618C526.8218,169.56618,527.1898,170.42809,527.4826,171.52736C527.77484,172.58698,528.1826,173.48734,528.38043,173.48734C528.38074,173.48734,528.3811,173.48732,528.3814,173.48732C528.382,173.4873,528.38257,173.4873,528.3832,173.4873C528.5811,173.4873,528.9825,173.99335,529.34686,174.65675C529.7103,175.28029,530.1902,175.82378,530.4669,175.82378C530.468,175.82378,530.46906,175.82376,530.47015,175.82375C530.4719,175.82372,530.47375,175.8237,530.4756,175.8237C530.7928,175.8237,531.3872,176.24667,531.8267,176.75014C532.26886,177.25648,532.8287,177.7217,533.0667,177.79701C533.30475,177.87233,533.5888,178.38112,533.7552,178.93117C534.0905,180.18922,532.73834,182.105,531.51483,182.1238C530.9622,182.13234,529.7535,183.09853,528.2398,184.7798C526.0656,187.1426,525.7966,187.6205,525.8184,189.04115C525.83307,189.98842,525.4981,191.29628,524.9206,192.25269C524.22906,193.48706,523.97174,194.71484,523.85284,197.24316C523.76605,199.29736,523.4019,201.27686,522.94525,202.38916C522.337,203.89856,522.1645,205.51978,522.03485,212.46973C521.79486,222.50047,521.78815,222.06639,522.237,225.57286C522.4191,227.14694,522.7543,228.443,522.991,228.443C522.99133,228.443,522.9917,228.44298,522.992,228.44298C522.9926,228.44296,522.99316,228.44296,522.9938,228.44296C523.47314,228.44296,526.47064,231.3113,526.4786,231.8236C526.4816,232.0211,526.84344,232.44981,527.28375,232.83775C527.84296,233.26329,528.09076,233.97008,528.1066,234.9962C528.1401,237.16685,527.2039,237.89195,523.9317,238.1793C520.8964,238.463,520.0772,239.10728,518.74396,242.24644C518.3239,243.16087,517.7453,244.0383,517.43146,244.16159C517.07806,244.28549,516.73627,245.15927,516.59357,246.14828C516.4898,247.09738,516.0739,248.28806,515.6872,248.80722C515.29974,249.28696,514.88324,250.4382,514.74005,251.38791C514.59686,252.3375,514.0722,254.16159,513.5793,255.4719C513.0857,256.74268,512.67847,258.48596,512.69055,259.2754C512.70337,260.10413,512.2942,261.729,511.75928,262.88208C511.22498,264.0747,510.81592,265.6996,510.8286,266.52832C510.84082,267.31775,510.43835,269.3767,509.91138,271.04272C509.3844,272.70898,508.98438,274.92578,509.00024,275.95203C509.0221,277.3728,509.31116,278.1974,510.03687,279.17297C510.60095,279.91443,511.04724,280.69714,511.0509,280.93396C511.05518,281.2102,511.41833,281.71777,511.85852,282.1057C513.7396,283.77417,512.00684,286.60376,509.0869,286.68823C508.57373,286.69617,507.47607,287.1869,506.61572,287.71326C505.75598,288.27927,504.73645,288.72922,504.38135,288.7347C503.98657,288.7408,503.51855,289.10324,503.28833,289.5411C503.05823,289.97885,502.4729,290.4222,501.96228,290.58798C501.45105,290.71432,500.9453,291.1959,500.83362,291.6318C500.72192,292.06784,500.255,292.50912,499.82275,292.63425C499.35095,292.75998,498.99927,293.0023,499.0017,293.16013C499.00842,293.59433,495.97803,296.7596,495.50452,296.76694C495.30713,296.77,495.1128,296.97043,495.11646,297.20724C495.125,297.75974,492.25012,300.76486,491.73706,300.7728C491.53967,300.77585,491.15173,301.21616,490.92346,301.7723C490.6952,302.32846,490.3072,302.76865,490.07037,302.7723C489.5573,302.78024,485.01086,307.4692,485.0188,307.98227C485.02246,308.2191,484.59448,308.62045,484.04553,308.8658C483.4967,309.11105,483.06927,309.55185,483.07355,309.8281C483.07843,310.1439,482.65216,310.66367,482.1051,311.02744C481.55798,311.3912,481.13245,311.9504,481.13672,312.22665C481.1416,312.54245,480.71405,312.98325,480.1646,313.18906C479.57626,313.43503,479.18832,313.8752,479.1956,314.34885C479.2023,314.78305,478.89566,315.37985,478.46585,315.66293C478.07547,315.94528,477.49557,316.74374,477.15073,317.42014C476.80582,318.09653,476.2637,318.77597,475.94974,318.89926C475.6359,319.02255,475.32797,319.5405,475.25705,320.05478C475.186,320.56906,474.7604,321.1284,474.29044,321.37253C473.78043,321.5776,473.3925,322.0179,473.39737,322.3336C473.40164,322.60995,472.94077,323.446,472.3597,324.16562C471.73917,324.88583,470.85098,326.1628,470.31058,326.96054C469.77084,327.79794,468.95847,328.8763,468.45267,329.35788C467.9481,329.9183,467.52982,330.95126,467.38962,332.09824C467.17776,333.71994,467.26157,334.0344,468.142,334.81052C470.02377,336.51828,468.49557,339.81857,465.77237,339.86057C465.18033,339.86972,464.3965,340.23715,464.0085,340.67722C463.62057,341.11752,462.95627,341.56198,462.52457,341.72653C460.95383,342.264,451.35458,352.08392,451.37106,353.14948C451.37405,353.34686,450.9454,353.7088,450.3959,353.9145C449.8076,354.16046,449.41965,354.60077,449.4269,355.07428C449.43362,355.50848,449.08694,356.06647,448.65646,356.31C448.22598,356.55353,447.8774,356.99323,447.8823,357.3089C447.88718,357.6247,447.38748,358.5008,446.7275,359.2215C446.10764,359.98114,445.56845,360.85797,445.57333,361.17377C445.57822,361.48944,445.15683,362.325,444.61594,363.08344C444.07492,363.84174,443.65604,364.83514,443.6633,365.30878C443.67062,365.7823,443.25113,366.73627,442.70828,367.37628C442.1661,368.05573,441.74655,369.0097,441.7545,369.52277C441.76303,370.07538,441.34164,370.91083,440.83652,371.4317C440.2913,371.91388,439.75272,372.83014,439.64346,373.424C439.5342,374.01788,439.0734,374.85394,438.64536,375.25543C437.6332,376.1789,437.671,378.62592,438.7512,379.5567C439.75125,380.40973,439.86917,382.9344,438.97537,383.85626C438.66513,384.21625,437.959,384.5036,437.44595,384.5114C436.93283,384.51935,435.7537,384.85333,434.8126,385.26263C433.87204,385.71136,432.10275,386.1729,430.8422,386.35016C429.54166,386.4887,428.08865,386.98492,427.50333,387.42816C426.918,387.8714,425.58408,388.4052,424.56094,388.61847C423.53787,388.83148,422.3605,389.284,421.97134,389.64532C421.58212,390.00665,420.5627,390.45648,419.73575,390.5877C418.8693,390.71954,417.96878,391.2072,417.69864,391.60602C417.42844,392.00494,416.95975,392.32806,416.644,392.33295C416.32828,392.33783,415.4685,392.90375,414.76782,393.5462C414.02832,394.22858,413.16797,394.7552,412.89166,394.75946C412.61542,394.76373,412.02887,395.128,411.562,395.56952C411.13458,396.0103,409.8103,397.1756,408.64087,398.14105C406.69193,399.7502,405.44968,401.11166,403.32162,403.9078C402.66403,404.78647,402.2311,404.87204,397.8138,405.13766L393.00247,405.4487L391.8002,404.28293C391.15836,403.6218,390.46976,402.48752,390.3392,401.69992C390.16904,400.87604,389.8842,400.25006,389.6478,400.25006C389.6471,400.25006,389.64642,400.2501,389.64572,400.2501L389.64456,400.2501C389.44635,400.2501,388.92224,399.46973,388.47372,398.49167C388.02533,397.5137,387.50116,396.73325,387.30295,396.73325L387.3004,396.73325C387.10205,396.73325,386.58005,396.07144,386.13412,395.2512C385.68723,394.42917,385.04172,393.5311,384.7217,393.25974C384.36166,392.94955,384.07687,392.4011,384.07077,392.00644C384.06467,391.6118,383.70343,391.22263,383.26685,391.07138C382.79077,390.92087,382.30682,390.2573,382.0548,389.27426C381.80457,388.40964,381.3152,387.39084,380.99396,387.0405C380.67273,386.69016,379.70905,385.639,378.82678,384.74472L377.30078,383.07092L367.2367,383.2262C358.15918,383.3662,357.01587,383.46277,355.487,384.15744C354.5465,384.60617,352.54218,385.1898,351.0066,385.4503C349.5105,385.71017,347.5451,386.25375,346.68353,386.70126C345.8213,387.10934,344.17035,387.56918,343.06775,387.744C341.64996,387.96323,340.98267,388.21042,340.98877,388.60507C340.9936,388.92087,340.52728,389.40182,339.93958,389.6871C339.31177,389.9337,338.57098,390.53732,338.22186,390.93747C337.79565,391.45724,336.93164,391.74692,335.2765,391.93027C333.85748,392.07065,332.59998,392.44528,332.05414,392.88803C331.54718,393.29062,330.09357,393.74716,328.79358,393.92526C327.4936,394.10324,326.03998,394.55978,325.53302,394.96237C325.06555,395.36447,324.16443,395.8126,323.5749,395.97958C322.59186,396.23154,319.47467,398.8851,317.14557,401.4476C316.60284,402.0875,315.93915,402.5715,315.66284,402.57578C315.3866,402.58005,315.15405,402.85995,315.15894,403.17575C315.16382,403.49142,314.6587,404.01254,313.99316,404.37802C313.3672,404.7429,312.82196,405.22507,312.82684,405.54086C312.83112,405.8171,312.40363,406.2579,311.85474,406.50327C311.3059,406.74863,310.8791,407.22897,310.88336,407.50522C310.88818,407.821,310.46075,408.2618,309.91187,408.50705C309.36298,408.7524,308.93616,409.23276,308.94098,409.54843C308.94525,409.82468,308.51965,410.384,307.9726,410.74777C307.42548,411.11142,306.99866,411.59177,307.00293,411.868C307.0066,412.10483,306.07886,413.3823,304.95502,414.7419C303.79175,416.10214,302.78693,417.49924,302.63452,417.8569C302.52216,418.2534,302.13245,418.57535,301.8167,418.58023C301.50098,418.5851,301.11237,418.98587,300.96185,419.46182C300.6996,420.37393,300.00555,421.45035,298.03052,423.9285C297.41058,424.68814,296.94916,425.48465,296.95343,425.7609C296.9577,426.03726,296.61163,426.63467,296.14532,427.11563C295.05786,428.27725,293.59222,430.51053,293.05975,431.82144C292.83215,432.41714,292.3282,433.01712,291.8958,433.14224C291.3852,433.308,291.1557,433.7853,291.1673,434.5352C291.17883,435.28506,290.83344,435.92203,290.2099,436.44473C289.664,436.88748,289.239,437.4861,289.2433,437.76236C289.24817,438.07816,288.71143,439.11282,288.09515,440.10928C287.47894,441.10574,286.9416,442.10086,286.94586,442.3771C286.95013,442.65335,286.6405,443.053,286.2094,443.257C285.81836,443.4999,285.3551,444.17813,285.20642,444.7726C284.8379,446.47586,283.9417,447.23978,281.93256,447.5076C280.9483,447.6807,279.33624,448.10022,278.39447,448.4701C277.41327,448.84058,275.40472,449.14783,273.74707,449.17334C273.42224,449.18185,273.12427,449.18747,272.85068,449.18747C270.03342,449.18747,269.80197,448.592,269.44983,444.4235C269.2627,442.53152,268.82483,439.7355,268.44647,438.24124C267.94116,436.1962,267.69757,433.19974,267.51392,426.41263C267.23715,416.15292,266.95102,412.9597,266.05106,410.92075C265.6011,409.90134,265.2877,407.49802,265.0629,403.15915L264.7286,396.848L263.32108,395.1722C262.5566,394.23654,261.23715,393.15158,260.44107,392.7297C259.60556,392.30832,258.92667,391.8055,258.9236,391.60812C258.9203,391.38928,257.87314,391.25403,256.46835,391.25403C256.353,391.25403,256.2352,391.25494,256.1154,391.2568C253.94473,391.29025,252.96109,391.5029,251.98349,392.11008C251.28043,392.59457,249.788,393.0914,248.68472,393.22678C247.50253,393.3635,246.56076,393.73337,246.44724,394.05087C246.33371,394.3685,245.67007,394.8524,245.00345,395.139C244.3367,395.42563,242.11874,397.51266,240.10117,399.79404C235.75449,404.63766,233.92876,406.56076,229.65007,410.69284C227.93968,412.41672,226.50377,414.01804,226.50804,414.29428C226.51231,414.57053,226.09221,415.48483,225.5518,416.2828C225.01146,417.08066,224.59312,418.1135,224.59984,418.5477C224.60655,418.98178,224.18518,419.8174,223.6819,420.45682C223.17793,421.0568,222.64491,422.32816,222.50105,423.2383C222.39662,424.14786,221.9413,425.33926,221.59334,425.8184C221.20662,426.33755,220.79439,427.76505,220.69612,429.06924C220.59901,430.45255,220.18678,431.88004,219.76118,432.43924C219.25905,433.1575,218.9634,434.46475,218.83723,436.51956C218.70491,438.1796,218.34315,440.31693,218.00252,441.26968C217.66194,442.22232,217.15266,445.0331,216.91475,447.52383C216.63734,450.01514,216.16695,452.78564,215.86458,453.6588C215.56221,454.53198,215.24538,457.02393,215.12105,459.19702C214.9966,461.37012,214.60573,464.17908,214.23055,465.44812C213.81587,466.71777,213.40974,468.5398,213.2665,469.4895C213.09169,470.95288,212.78444,471.51025,211.14821,472.91724C210.09657,473.8413,208.4535,474.8142,207.51118,475.14465C206.8119,475.34857,206.3612,475.46274,205.93979,475.46274C205.41388,475.46274,204.93356,475.2849,204.07265,474.88184C203.11879,474.46228,202.28139,473.9225,202.19942,473.72644C202.15694,473.52966,201.67421,472.94495,201.1526,472.4004C200.30977,471.5055,200.26363,471.0719,199.85274,462.35376C199.44313,453.71472,199.35567,453.16345,198.38045,451.36255C197.44533,449.6006,197.35909,449.12817,197.1681,441.86746C196.99721,435.9091,196.8083,433.8987,196.27821,432.80154C195.91139,432.05704,195.39821,429.49905,195.12483,427.13467C194.81203,424.7709,194.3426,422.48856,194.01955,422.0198C193.65578,421.4727,193.38799,419.46347,193.2166,416.0317C193.08647,412.71762,192.77611,410.5117,192.45122,409.92465C190.95142,407.38168,190.1875,406.48557,189.27423,406.14438C188.71869,405.95554,187.84247,405.45578,187.32208,404.9902C186.71266,404.48102,186.0308,404.22363,185.28806,404.22363C184.61736,404.22363,183.897,404.4335,183.1355,404.8574C182.50952,405.22238,181.53137,405.79,180.9831,406.07492C180.43481,406.3597,179.49976,407.16367,178.83923,407.84482C178.21808,408.5256,177.28607,409.52695,176.81976,410.00778C176.31464,410.5289,175.93268,411.36374,175.94061,411.8768C175.94855,412.38986,175.72571,413.30136,175.41852,413.8586C174.61407,415.45016,174.39978,416.91403,174.15474,421.49722C173.93568,425.21146,173.78816,425.8848,173.08693,426.48782C172.38564,427.09073,172.23811,427.76407,172.09499,431.2797C171.97176,433.53177,171.62099,436.37955,171.28401,437.569C170.42378,440.66153,170.64772,452.6195,171.64308,455.72278C172.0165,456.90125,172.4933,459.65723,172.64522,461.82617C172.84267,464.38904,173.18703,466.23926,173.67458,467.13965C174.08089,467.88342,174.58858,470.0863,174.85518,472.0166C175.12184,473.94678,175.50447,475.7173,175.74611,476.02942C175.9872,476.302,176.48946,478.14966,176.83565,480.1183C177.18239,482.12622,177.76723,484.20935,178.17043,484.75586C178.65498,485.45898,178.91371,486.8761,179.0359,489.677C179.24794,493.18726,179.17696,493.70154,178.44289,494.73926C178.0179,495.338,177.63356,496.015,177.63661,496.2124C177.64804,496.9517,176.43005,497.59476,175.10925,497.59476C175.09035,497.59476,175.0714,497.59464,175.05244,497.59436C173.11732,497.5453,172.23994,496.96667,171.90169,495.51123C171.7328,494.80334,171.16512,493.8252,170.64467,493.3595C170.12428,492.8938,169.67854,492.1505,169.6725,491.75586C169.66579,491.32166,169.29842,490.53784,168.8564,490.0315C168.45314,489.4851,167.88234,488.30957,167.67097,487.4049C167.45906,486.4607,167.01027,485.52026,166.65144,485.28894C166.292,485.01807,165.88326,484.11633,165.71205,483.2505C165.58022,482.38403,165.12965,481.3252,164.72768,480.85767C164.28688,480.4303,163.75185,479.01733,163.49495,477.71863C163.19917,476.45996,162.74434,475.12463,162.4626,474.77368C162.14137,474.42334,161.68715,473.1277,161.43025,471.82886C161.1739,470.56958,160.67903,469.19556,160.3177,468.8064C159.91641,468.37842,159.53928,466.963,159.35403,465.18933C159.12564,463.17957,158.75095,461.92212,158.22751,461.25903C157.66458,460.59668,157.36942,459.37744,157.09732,457.09204C156.95157,455.31787,156.52823,453.469,156.20517,453.00024C155.92221,452.5703,155.42056,450.7621,155.11813,449.0692C154.8132,447.21866,154.27335,445.49002,153.79007,444.86588C153.30606,444.20218,152.93076,442.9053,152.79105,441.5258C152.64774,439.90945,152.35861,439.08475,151.84006,438.73746C151.4412,438.46732,150.99423,437.64517,150.82541,436.9373C150.6954,436.18924,150.12766,435.2111,149.60666,434.70596C149.08627,434.24026,148.64359,433.69437,148.6412,433.5364C148.63388,433.0629,146.09201,429.5098,145.65482,429.31912C144.97964,429.05313,142.21255,426.25357,142.20584,425.8195C142.20279,425.6221,141.79843,424.9966,141.31686,424.49088C140.79526,423.94632,140.03201,423.08963,139.58994,422.58328C139.10776,422.038,138.30814,421.37918,137.7908,421.11087C137.23396,420.843,136.55452,420.30087,136.27156,419.87094C135.9916,419.48392,135.44131,419.17874,135.08578,419.17874C135.08269,419.17874,135.07962,419.17874,135.07655,419.1788C135.07426,419.17883,135.07195,419.17886,135.06963,419.17886C134.71056,419.17886,133.8817,418.7594,133.2458,418.22018C132.60936,417.68036,131.85764,417.25958,131.53879,417.25958C131.537,417.25958,131.53523,417.25958,131.53346,417.2596C131.53123,417.25964,131.52896,417.25967,131.52667,417.25967C131.2048,417.25967,130.29839,416.92032,129.42958,416.50266C128.46288,416.03778,127.59305,415.80466,126.72942,415.80466C125.816444,415.80466,124.91039,416.0652,123.90413,416.58786C123.04262,417.03537,121.86403,417.4089,121.2325,417.41855C120.60103,417.4283,119.777725,417.79636,119.389786,418.23654C119.001785,418.67685,118.10072,419.12485,117.35329,419.29428C116.56637,419.46445,115.86269,419.90952,115.59432,420.42685C115.36422,420.86472,114.90219,421.62186,114.51425,422.06204C113.583466,423.14236,111.82285,429.28848,111.927956,430.98428C112.08292,433.3505,111.546974,436.9905,110.63804,439.4916C110.07041,441.0795,109.707436,443.13785,109.62742,445.62613C109.5048,447.91776,109.146095,450.25232,108.69376,451.64087C107.74918,454.3794,107.72855,455.60352,108.59812,458.235C109.21818,460.0415,109.26249,460.35657,108.69425,461.9048C108.393166,462.85693,108.027626,464.75745,107.93064,466.14063C107.76304,468.07764,107.50022,468.9502,106.68723,469.98914C105.60282,471.34802,105.21061,471.51196,102.49406,471.98816C101.6677,472.1588,100.60941,472.6488,100.143654,473.1693C99.716835,473.64954,99.01438,474.17346,98.62217,474.33752C98.268776,474.46143,97.95786,474.78198,97.961525,475.0188C97.96458,475.2162,97.14677,475.93933,96.13029,476.58667L94.3325,477.75928L92.781044,476.99365C91.905495,476.53333,91.02567,475.79688,90.82041,475.28687C90.65569,474.77948,90.21938,474.3543,89.86535,474.3543C89.86308,474.3543,89.86082,474.35434,89.85856,474.35437C89.85635,474.3544,89.85414,474.35443,89.85191,474.35443C89.5345,474.35443,88.942825,474.0102,88.58341,473.58435C88.221535,473.15576,87.14921,472.73804,86.19956,472.59485C85.25053,472.49097,84.01908,471.99683,83.42045,471.5719C81.45429,470.06027,72.772995,468.94138,65.1976,468.94138C63.07563,468.94138,61.040432,469.02914,59.2639,469.2207C56.741684,469.49646,53.6693,469.9386,52.48894,470.19373C51.308582,470.44873,48.630238,470.84546,46.581043,471.07434C44.4923,471.30396,42.013783,471.85547,41.07323,472.30408C40.09264,472.714,38.363457,473.21448,37.181877,473.39063C36.039726,473.56616,34.507256,474.02393,33.84234,474.42896C33.177483,474.8341,31.881767,475.28833,30.976494,475.46008C30.070549,475.59253,29.247795,476.0,29.13366,476.2782C29.020134,476.5957,28.198662,477.08203,27.255732,477.37292C26.312738,477.66382,24.980585,478.31604,24.238031,478.80115C23.496027,479.3258,22.594416,479.73462,22.199701,479.74072C21.805048,479.74683,21.061274,480.15295,20.516047,480.635C17.746984,483.2159,17.035387,483.76328,15.544039,483.76328C15.295735,483.76328,15.025817,483.7481,14.721188,483.7246C13.574765,483.62402,12.583859,483.3629,12.501218,483.12732C12.418637,482.89185,11.932858,482.10974,11.408811,481.40723C10.884824,480.7047,10.156125,479.53162,9.830076,478.8656C9.504374,478.16223,9.023635,477.57907,8.786033,477.57907C8.78529,477.57907,8.78455,477.5791,8.783812,477.5791C8.782807,477.57913,8.7818,477.57913,8.780791,477.57913C8.543927,477.57913,8.184247,477.1519,7.9798565,476.64392C7.7333355,476.0161,7.2141705,475.6294,6.264464,475.48608C5.5121446,475.33984,4.756774,474.99622,4.633544,474.68225C4.510314,474.3683,3.7943716,474.02405,3.0426629,473.91736C2.2903438,473.771,1.2951046,473.23364,0.77416974,472.72852C0.2950711,472.2253,-0.37823766,471.8032,-0.6570809,471.8032C-0.65848213,471.8032,-0.6598734,471.8032,-0.6612547,471.80322C-0.6634956,471.80325,-0.6657706,471.80328,-0.6680794,471.80328C-0.9911271,471.80328,-1.97567,471.46487,-2.8842156,471.00854C-3.798644,470.58838,-5.9772935,470.10876,-7.716917,469.93823C-9.733397,469.73242,-11.239804,469.32153,-11.878598,468.85767C-12.676511,468.31726,-13.943662,468.06055,-16.867306,467.9082C-19.277218,467.78748,-21.454035,467.4264,-22.526972,466.96912C-23.628593,466.509,-24.58596,466.346,-28.66338,466.346C-30.321442,466.346,-32.495438,466.37296,-35.40487,466.41785C-45.78478,466.578,-46.691914,466.63135,-48.37682,467.4469C-49.39626,467.89685,-51.480732,468.40283,-53.057575,468.54553C-54.871235,468.69202,-56.60109,469.15283,-57.815445,469.7638C-58.912613,470.29395,-60.16887,470.74744,-60.68193,470.75537C-61.195023,470.7633,-62.490738,471.21765,-63.547836,471.7865C-64.604935,472.3556,-65.86119,472.8092,-66.33479,472.8164C-66.768936,472.82312,-67.66997,473.27136,-68.33241,473.83423C-68.95537,474.39648,-69.89586,474.8452,-70.36946,474.85254C-70.88255,474.86047,-72.05867,475.39185,-72.9955,476.07727C-73.93297,476.7234,-74.95061,477.29187,-75.18742,477.29553C-75.4637,477.2998,-75.69682,477.54028,-75.69194,477.85596C-75.68709,478.17175,-76.03621,478.5719,-76.50798,478.6975C-76.93971,478.86206,-77.87776,479.46875,-78.538956,480.1106C-79.24025,480.71362,-80.17832,481.3202,-80.64951,481.48535C-81.16013,481.65112,-81.54871,482.05188,-81.54447,482.32813C-81.53959,482.64392,-81.96824,483.00586,-82.51835,483.17224C-83.02961,483.29846,-83.57542,483.7411,-83.68775,484.1377C-83.80006,484.53418,-84.345924,484.9768,-84.857155,485.10315C-85.407265,485.26953,-85.835945,485.63147,-85.83106,485.94727C-85.82618,486.26294,-86.25181,486.82214,-86.798836,487.1859C-87.345924,487.54956,-87.77152,488.1089,-87.76728,488.38513C-87.7624,488.70093,-88.18986,489.14172,-88.73933,489.34766C-89.288826,489.55347,-89.715675,490.0337,-89.71018,490.38892C-89.70472,490.74414,-90.126686,491.54016,-90.66886,492.2196C-91.21165,492.85974,-91.634224,493.61633,-91.62995,493.89258C-91.62571,494.16882,-92.04887,494.886,-92.59229,495.48645C-93.13569,496.0869,-93.557045,496.9225,-93.55033,497.35657C-93.54365,497.79077,-93.965614,498.5868,-94.50962,499.14783C-95.05366,499.70898,-95.476234,500.46558,-95.46952,500.89966C-95.45432,501.88635,-96.174965,503.79224,-96.643684,504.11536C-96.87864,504.23743,-97.29087,505.66492,-97.58225,507.24854C-97.913124,508.83276,-98.36115,510.49768,-98.66956,510.9762C-98.938545,511.45398,-99.21897,513.7479,-99.33665,516.3552C-99.48405,519.5945,-99.73292,521.3749,-100.26841,522.4885C-100.649666,523.3628,-101.102,524.7516,-101.24708,525.58276C-101.39094,526.4929,-101.812294,527.3285,-102.35932,527.69214C-102.86756,528.01575,-103.3314,528.65466,-103.44373,529.05115C-103.5554,529.48706,-103.90516,529.8478,-104.220894,529.85266C-104.53663,529.85754,-105.0023,530.3779,-105.22877,531.0525C-105.41636,531.68713,-105.80253,532.2456,-106.039314,532.24927C-106.27613,532.2529,-106.777016,533.0502,-107.15708,534.00354C-107.57661,534.9574,-108.15522,535.83484,-108.50858,535.95874C-108.86137,536.1222,-109.13032,536.59985,-109.123604,537.03406C-109.11692,537.46814,-109.5395,538.22473,-110.084724,538.7069C-110.66883,539.2291,-111.05195,539.9851,-111.0416,540.6561C-111.03245,541.24805,-111.45072,542.281,-111.99354,542.921C-112.535736,543.60034,-112.95648,544.47534,-112.9498,544.9094C-112.943695,545.3042,-113.36261,546.2975,-113.824646,547.0547C-114.32614,547.8125,-114.86163,548.92615,-115.009766,549.56006C-115.1579,550.194,-115.69461,551.22864,-116.2374,551.86865C-116.74075,552.50806,-117.16089,553.4225,-117.153564,553.8961C-117.14566,554.4092,-117.4899,555.1251,-117.87909,555.4863C-118.30716,555.8878,-118.76492,556.92114,-118.86932,557.8307C-119.013794,558.7014,-119.54318,560.2097,-120.041046,561.20435C-120.53888,562.199,-120.95535,563.3502,-120.94928,563.7449C-120.942566,564.1791,-121.32324,565.0929,-121.7865,565.7711C-122.983795,567.48706,-123.56534,570.73315,-122.98541,572.5006C-122.52863,574.02936,-120.28679,576.6701,-119.45313,576.6701C-119.45112,576.6701,-119.44911,576.6701,-119.44711,576.67004C-119.13138,576.66516,-118.5054,576.3002,-117.99902,575.8583C-117.492645,575.41614,-116.94556,575.05237,-116.78769,575.0499C-116.62982,575.0475,-116.32324,574.45056,-116.09741,573.7366C-115.8327,572.9824,-115.21646,571.98596,-114.71005,571.54395C-114.164856,571.0619,-113.74228,570.3053,-113.74896,569.8711C-113.75568,569.437,-113.41141,568.72107,-112.98395,568.28015C-112.55652,567.83936,-112.13519,567.0038,-111.98646,566.4094C-111.838295,565.7755,-111.41697,564.94006,-111.029,564.49976C-110.64161,564.02014,-110.103096,563.10376,-109.877235,562.3898C-109.651405,561.67566,-109.22581,561.11646,-108.94953,561.1122C-108.6338,561.1073,-108.323524,560.7473,-108.17173,560.3502C-107.85637,559.32416,-107.41635,558.87506,-106.43544,558.87506C-106.0133,558.87506,-105.490974,558.9582,-104.835304,559.1144L-102.85401,559.5969L-101.45692,558.0359C-100.720436,557.156,-99.90687,556.1565,-99.715645,555.7588C-99.52436,555.3611,-99.0951,555.0386,-98.818825,555.0343C-98.50309,555.0294,-98.15519,554.5504,-98.00648,553.95605C-97.897194,553.3622,-97.47401,552.645,-97.083015,552.4021C-96.69257,552.11975,-96.19352,551.2041,-95.9701,550.33215C-95.70722,549.4596,-95.285255,548.6636,-94.97135,548.5404C-94.69691,548.4177,-94.35267,547.7018,-94.20698,546.91003C-94.06129,546.11816,-93.63932,545.32214,-93.20884,545.0786C-92.77836,544.8351,-92.35639,544.03906,-92.21009,543.28674C-92.10386,542.4956,-91.643654,541.6201,-91.21439,541.2976C-90.78449,541.01465,-90.20286,540.3346,-89.973366,539.8573C-89.74384,539.38,-89.00312,538.77637,-88.37467,538.56946C-87.706795,538.3617,-86.84583,537.87463,-86.41776,537.47327C-85.98972,537.0719,-85.20707,536.62573,-84.65696,536.4592C-84.10685,536.29285,-83.324196,535.84656,-82.89616,535.44507C-82.46809,535.0437,-81.36973,534.59265,-80.424965,534.42004C-79.44072,534.24695,-78.618,533.8395,-78.38786,533.40186C-78.15776,532.964,-77.33507,532.5565,-76.42973,532.38464C-75.52443,532.21265,-74.38841,531.6426,-73.883255,531.1216C-73.37807,530.6006,-72.75331,530.1566,-72.516495,530.15295C-72.31917,530.1499,-72.12547,529.91003,-72.130356,529.59436C-72.13524,529.27856,-71.78792,528.76013,-71.35869,528.43774C-70.96825,528.1554,-70.47099,527.1212,-70.248215,526.20984C-70.065506,525.2595,-69.41405,523.9862,-68.83177,523.3456C-67.939255,522.345,-67.428604,522.1792,-65.77098,522.15356C-65.723946,522.15283,-65.67712,522.15247,-65.63049,522.15247C-64.38599,522.15247,-63.289555,522.40875,-62.483627,522.8529C-61.805984,523.27686,-60.219376,523.7655,-58.952774,523.9828C-57.686172,524.2001,-56.25804,524.65173,-55.77956,524.9602C-54.76171,525.5997,-49.123684,525.88904,-42.801464,525.88904C-34.267452,525.88904,-24.48679,525.3618,-23.140131,524.45667C-22.631952,524.13293,-20.823145,523.6709,-19.129726,523.40784C-17.396786,523.1443,-15.076778,522.5558,-14.017269,522.14465C-12.91882,521.6935,-11.031125,521.2301,-9.809446,521.0929C-8.43054,520.9136,-7.4093,520.58215,-7.2174053,520.2239C-7.06439,519.90564,-5.7692857,519.412,-4.352111,519.1533C-2.9744256,518.89514,-1.521484,518.3989,-1.1710813,518.07776C-0.78131086,517.756,0.35717764,517.3436,1.3802487,517.1304C2.4033198,516.91736,3.5794668,516.386,4.046386,515.94446C4.5133047,515.50305,5.139281,515.13806,5.4944444,515.1327C5.810179,515.1278,6.748961,514.56055,7.5679913,513.91626C8.386412,513.23254,9.286314,512.70557,9.602049,512.7007C9.917784,512.6958,10.740476,512.2883,11.403501,511.76477L12.653073,510.8772L33.68853,510.51306C55.23644,510.10168,57.720993,509.94495,59.24443,508.89502C59.908676,508.45056,61.95732,508.182,67.04552,507.90613C70.87077,507.64978,74.18114,507.28284,74.45445,507.0813C74.727036,506.8402,76.8109,506.29492,79.09447,505.9043C81.37748,505.47437,83.42252,504.96912,83.69572,504.76746C84.35696,504.22714,85.53411,503.8958,86.51835,503.8958C86.92674,503.8958,87.30192,503.95285,87.59324,504.07568C88.10996,504.30457,88.5496,504.65308,88.55204,504.8109C88.55448,504.96887,88.99229,505.19897,89.54661,505.30884C90.1016,505.45825,90.54124,505.80676,90.54612,506.12244C90.55039,506.39868,91.271095,507.05872,92.146706,507.5188C93.02293,508.01868,93.7418,508.56018,93.74424,508.71802C93.74729,508.9154,94.305336,509.2621,94.94047,509.48914C95.61448,509.67603,96.33335,510.21777,96.57627,510.60876C96.778465,510.998,97.214005,511.34464,97.49053,511.34464C97.492226,511.34464,97.493904,511.34464,97.49558,511.3446C97.49676,511.34457,97.49794,511.34457,97.49914,511.34457C97.77967,511.34457,98.69105,511.84216,99.52671,512.49744C100.36055,513.11273,101.38822,513.6469,101.78786,513.6469C101.79012,513.6469,101.792366,513.6469,101.79459,513.64685C101.79871,513.6468,101.80283,513.6467,101.80695,513.6467C102.23705,513.6467,102.669556,513.9924,102.79282,514.3815C102.91978,514.9321,103.47654,515.19995,104.7031,515.3784C105.65214,515.4822,106.84287,515.8981,107.36204,516.2849C107.8812,516.67163,109.07249,517.12683,110.02213,517.27026C110.97184,517.41345,112.04416,517.83105,112.444916,518.2197C112.96585,518.72485,114.075836,519.02356,115.69644,519.1565C117.08023,519.2931,119.33658,519.6924,120.76407,520.10474C122.548004,520.59033,125.5925,520.8987,130.60849,521.0582C135.62509,521.2571,138.03683,521.4962,138.51651,521.88354C138.876,522.1543,139.6326,522.5769,140.26834,522.8435C140.86398,523.07117,141.34427,523.4979,141.34793,523.73474C141.3516,523.97156,141.79428,524.51746,142.35349,524.943C142.91275,525.36865,143.35422,525.83545,143.35727,526.03284C143.36026,526.2302,144.24503,527.2825,145.32706,528.33167C146.44919,529.41956,147.45291,530.5095,147.65451,530.78284C148.03407,531.4158,149.5019,532.0604,150.36528,532.0604C150.51566,532.0604,150.6477,532.0409,150.75247,531.9983C150.86523,531.9533,151.00055,531.9324,151.15158,531.9324C152.10417,531.9324,153.68225,532.7645,154.17282,533.64294C154.53781,534.2689,154.54813,534.93994,154.2136,536.28723C153.77042,538.2678,153.7305,540.7949,154.14053,544.3417C154.36765,546.27246,154.6124,546.78186,155.32767,547.0867C155.59923,547.207,155.88086,547.2726,156.13799,547.2726C156.37013,547.2726,156.58232,547.2191,156.74911,547.1041C157.0618,546.902,158.24338,546.7258,159.4274,546.7075C161.08498,546.682,161.75288,546.47437,162.68794,545.6704C163.31087,545.10803,164.17244,544.66064,164.52766,544.65515C164.92232,544.64905,165.66676,544.2822,166.17372,543.87964C166.72017,543.4763,167.73659,542.8291,168.48103,542.4624C170.98799,541.19995,172.47377,540.26904,173.21083,539.4286C173.83199,538.7479,174.46101,538.5803,176.47389,538.5492C176.63863,538.54663,176.79408,538.5452,176.9413,538.5452C178.66325,538.5452,179.25755,538.7389,180.39815,539.594C181.19667,540.17395,181.9587,540.95166,182.12263,541.3439C182.57686,542.63965,181.93819,544.7417,180.96193,545.42786C180.41487,545.7916,179.98921,546.3508,179.9941,546.6666C179.99898,546.9823,179.57698,547.77844,179.0348,548.4579C178.49202,549.0979,178.07124,549.9729,178.07796,550.407C178.08467,550.8412,177.6269,551.8745,177.08711,552.7119C176.4709,553.7084,176.17036,554.6998,176.26027,555.40906L176.3957,556.5123L181.72804,556.7064C182.80176,556.7443,183.97514,556.7619,185.20413,556.7619C192.88159,556.7619,202.72952,556.0761,204.01186,555.3756C204.67732,555.01,206.3282,554.5504,207.70589,554.29224C209.08363,554.0342,210.53725,553.5775,210.88698,553.2168C211.27614,552.85547,212.25551,552.3667,213.08064,552.11707C213.90645,551.907,214.84511,551.33984,215.11531,550.9409C215.38484,550.50256,215.89308,550.17883,216.20882,550.17395C216.52461,550.16907,217.14937,549.7252,217.6144,549.1653C218.15724,548.5254,219.01942,548.1173,220.23988,547.9011C221.22408,547.7279,222.48036,547.2744,222.98732,546.8718C223.61092,546.3489,224.55444,546.09753,225.93579,546.0763C226.03152,546.0748,226.1235,546.07404,226.21205,546.07404C227.69304,546.07404,228.21228,546.2963,229.2699,547.24854C229.95062,547.8696,230.55597,548.72876,230.56268,549.16296C230.56879,549.5576,231.01569,550.37976,231.53857,551.0033C232.06079,551.5874,232.58783,552.4873,232.75305,552.9585C232.91772,553.46594,233.31454,553.85284,233.62935,553.85284C233.63132,553.85284,233.63329,553.8528,233.63525,553.8528C233.63704,553.8528,233.63882,553.8527,233.64063,553.8527C233.95598,553.8527,234.393,554.2784,234.59778,554.8248C234.80228,555.3708,235.23885,555.79645,235.59282,555.79645C235.5951,555.79645,235.59735,555.79645,235.59961,555.7964C235.6014,555.7964,235.6032,555.7963,235.60501,555.7963C235.92123,555.7963,236.43657,556.22076,236.68042,556.7665C236.92491,557.3135,237.32437,557.74036,237.52243,557.74036L237.52664,557.74036C238.04565,557.74036,241.00386,560.64813,241.01178,561.1605C241.01483,561.3579,241.65118,561.6638,242.40283,561.77075C243.15515,561.9171,243.99066,562.3384,244.27301,562.72876C244.55542,563.11914,245.23303,563.54297,245.78735,563.65295C246.77771,563.8745,249.77557,566.27576,253.34235,569.73413C254.94476,571.249,255.38257,571.4791,257.47797,571.6836C259.37604,571.89124,260.05127,572.1572,261.17273,573.2057C262.0144,574.0217,262.5396,574.8032,262.46863,575.3175C262.29193,576.6625,260.71997,577.12085,255.62872,577.19946C251.80035,577.2584,250.50037,577.4365,249.12817,578.0498C247.9126,578.58167,245.94412,578.92804,242.67142,579.17596C239.0441,579.4687,237.66641,579.72675,236.68881,580.33405C235.90677,580.8199,234.33359,581.1994,232.55997,581.3847C230.62851,581.5723,229.33163,581.9477,228.66855,582.471C228.08261,582.8748,226.78818,583.40814,225.76505,583.6213C224.78134,583.8338,223.48685,584.367,222.94107,584.80963C222.39523,585.2524,221.45346,585.62213,220.82199,585.6319C220.22995,585.64105,219.21054,586.091,218.58762,586.65314C217.92514,587.2161,216.94516,587.66547,216.35318,587.6746C215.80063,587.68317,214.74173,588.1337,214.0787,588.65717C213.37619,589.1812,212.31845,589.71075,211.68942,589.87823C211.0604,590.04596,210.08102,590.5347,209.57462,590.97687C209.02817,591.38007,208.32327,591.74615,207.92862,591.75226C207.5734,591.75775,206.59464,592.2861,205.77615,592.9698C204.95712,593.61395,203.93942,594.18243,203.54477,594.18854C203.11069,594.19525,202.24905,594.64276,201.58664,595.2056C200.96371,595.7679,200.10208,596.2155,199.70743,596.2216C199.3522,596.2271,198.80399,596.5119,198.53256,596.8317C198.2612,597.1518,197.32126,597.6401,196.41776,597.93036C195.55313,598.1806,194.29996,598.8315,193.71579,599.3537C193.09225,599.8765,192.26956,600.284,191.83543,600.2906C191.40129,600.2973,190.4608,600.74615,189.7589,601.30963C189.05699,601.8732,188.15599,602.3212,187.76128,602.32733C187.40611,602.3328,186.58397,602.77985,185.92155,603.3427C185.29863,603.90497,184.39757,604.3531,183.96342,604.3598C183.48985,604.3671,182.58873,604.81525,181.9257,605.3387C181.26274,605.8621,180.0872,606.4329,179.33977,606.60236C178.59233,606.7719,177.53343,607.22235,176.98698,607.62555C176.43993,607.9893,175.34148,608.4406,174.47563,608.61176C173.64928,608.7824,172.51207,609.27374,171.92613,609.67755C171.37962,610.0806,170.2418,610.53253,169.37596,610.7038C168.549,610.835,167.3723,611.32684,166.8264,611.7695C166.24113,612.2128,165.06383,612.6651,164.23741,612.83575C163.37096,612.9676,162.19426,613.45953,161.64781,613.8626C161.10197,614.30536,159.88518,614.75836,158.9398,614.8914C157.99498,615.0638,156.62157,615.5982,155.87962,616.123C155.13707,616.6081,153.92021,617.0611,153.20982,617.0721C152.45995,617.0837,151.28264,617.53595,150.46239,618.1014C149.6815,618.6661,148.54369,619.118,147.99113,619.1264C147.43858,619.13495,146.33958,619.5467,145.59703,620.0319C144.8538,620.4775,143.481,621.05145,142.57573,621.2233C141.63158,621.4351,140.41539,621.9277,139.83,622.37103C139.20464,622.77545,138.02794,623.2673,137.1621,623.43854C136.33574,623.6092,135.15837,624.0617,134.61192,624.4648C134.06493,624.82855,132.88823,625.3204,131.9829,625.4924C131.07695,625.6247,130.13579,626.034,129.86443,626.35394C129.63249,626.6734,128.65251,627.12274,127.70891,627.3741C126.765366,627.62555,125.43327,628.2778,124.77025,628.8011C124.06773,629.32513,123.00877,629.7758,122.45628,629.78436C121.86424,629.7935,121.08037,630.1608,120.69243,630.601C120.30443,631.0413,119.36455,631.5295,118.57701,631.6601C117.790085,631.83014,116.731186,632.2807,116.22417,632.6833C115.7567,633.08527,114.6978,633.5358,113.95036,633.70526C113.20293,633.8747,112.184616,634.40375,111.67949,634.92474C111.17436,635.4456,110.47063,635.8907,110.11546,635.8962C109.79973,635.90106,109.13542,636.34564,108.670334,636.90546C108.20531,637.4653,107.541,637.9097,107.185776,637.9152C106.83061,637.9207,106.12688,638.3658,105.62236,638.92633C105.11778,639.48676,104.41405,639.9318,104.05888,639.9373C103.70366,639.9428,103.03941,640.38727,102.57439,640.9472C102.10924,641.507,101.48448,641.95087,101.16875,641.95575C100.8925,641.96,99.99266,642.4871,99.17418,643.17084C98.35509,643.8151,97.49541,644.38104,97.25859,644.3847C97.021774,644.38837,96.59306,644.7502,96.36235,645.1486C96.09282,645.587,95.271965,646.11285,94.5263,646.4006C93.74059,646.6496,93.11523,647.054,93.11828,647.2514C93.12133,647.4488,92.61797,648.0882,91.99505,648.65045C91.333244,649.25275,90.71636,650.20966,90.60772,650.84296C90.459526,651.47687,90.03698,652.23346,89.68548,652.47577C89.29504,652.75824,88.83422,653.5943,88.7268,654.3066C88.57983,655.0195,88.11785,655.77655,87.68676,655.9805C87.29571,656.22345,86.94659,656.6236,86.94964,656.821C86.95241,657.0,87.11863,657.0782,87.373085,657.0782C88.016106,657.0782,89.22256,656.57916,89.778496,655.9483C90.12823,655.5876,91.06811,655.0994,91.855644,654.96893C92.64251,654.79877,93.58312,654.35004,93.97167,653.9493C94.5545,653.3481,95.65716,653.1733,100.62645,652.8597C104.45232,652.64276,107.13121,652.2856,108.03282,651.8769C108.97398,651.4677,112.00804,651.10504,117.371994,650.78534C121.74919,650.4809,127.30675,649.9216,129.6693,649.52985C132.89743,648.9736,136.47351,648.6822,139.11705,648.6822C141.2131,648.6822,142.72287,648.86536,143.00804,649.24506C143.33049,649.6744,144.4398,649.93353,146.45573,650.0998C148.3137,650.2685,149.93791,650.63824,150.81413,651.1379C151.78082,651.7018,154.07513,651.98285,156.2584,651.98285C158.39352,651.98285,160.42245,651.71405,160.99974,651.17816C161.46666,650.73663,163.11754,650.27704,165.91429,649.8786C168.19853,649.5274,170.28477,649.1401,170.51915,648.97845C170.61403,648.9131,170.98761,648.8822,171.53769,648.8822C172.3465,648.8822,173.53688,648.9489,174.78404,649.0706C176.88011,649.31464,182.56828,649.54266,187.38634,649.6657C194.09995,649.83844,196.39212,650.00055,197.10983,650.4632C197.66788,650.80975,199.56717,651.0964,202.05667,651.2552C204.74344,651.4112,206.56381,651.69904,207.55844,652.19684C208.43344,652.6175,210.2944,652.9836,212.19131,653.11224C215.2333,653.26263,217.53098,653.77997,217.97488,654.4047C218.09567,654.5607,219.83713,654.8497,221.8931,655.05475C223.949,655.25995,226.00803,655.6624,226.56601,656.0092C227.08456,656.3564,228.82785,656.76373,230.44846,656.89667C232.14859,657.0678,233.93198,657.5141,234.68912,657.976C235.40622,658.39923,236.79428,658.8121,237.74332,658.91583C238.69235,659.0196,240.19876,659.4307,241.11325,659.85077C241.98825,660.27155,243.45645,660.76215,244.32773,660.946C245.91129,661.23737,245.9119,661.2768,246.06015,663.2089C246.25156,665.37714,245.63223,666.1762,243.89566,666.20306C243.3826,666.2109,242.44205,666.6597,241.7797,667.2226C241.15671,667.785,240.17673,668.2343,239.66367,668.2421C238.20334,668.2647,236.3807,670.3851,236.40567,672.00323C236.4172,672.7531,236.1531,673.5467,235.80215,673.82855C235.4913,674.1491,234.98978,674.9069,234.7239,675.5821C234.07791,677.21063,230.49869,680.6214,229.43307,680.63776C228.99893,680.6445,228.52957,680.92816,228.41599,681.24567C228.26303,681.5638,227.44339,682.16864,226.54172,682.5772C225.67947,682.9854,224.70255,683.632,224.3923,683.9922C224.12216,684.39105,223.45541,684.6777,222.90286,684.6862C222.3898,684.6941,221.13358,685.14777,220.116,685.7161C219.09836,686.2845,217.92099,686.73694,217.44742,686.7442C216.97379,686.7515,215.79648,687.2039,214.7789,687.77234C213.7612,688.3407,212.46548,688.79486,211.95242,688.8028C211.39987,688.81134,210.37985,689.22186,209.71622,689.7058C208.62326,690.5122,207.87521,690.6422,200.22287,691.03656C193.43814,691.3781,191.58629,691.60406,190.13567,692.25806C189.15508,692.668,187.14958,693.1726,185.61284,693.35425C184.11552,693.5353,182.50218,693.876,182.07292,694.19836C180.82213,695.00726,178.85185,695.235,168.04387,695.7966C161.69328,696.13135,157.04167,696.5584,155.42961,696.978C153.7816,697.3964,152.1086,697.5985,150.59244,697.5985C149.21442,697.5985,147.96594,697.4316,146.98357,697.10834C146.03087,696.7678,142.4727,696.4279,137.89024,696.2223C133.70311,696.05005,129.35503,695.68286,128.00761,695.3484C126.03995,694.8534,124.655334,694.6079,123.43547,694.6079C122.27215,694.6079,121.25866,694.8311,120.03221,695.274C117.69872,696.1192,113.93882,696.55096,110.63774,696.55096C107.49664,696.55096,104.770966,696.16003,104.084946,695.3622C103.84975,695.0584,103.0928,694.8749,102.43388,694.8749C102.41584,694.8749,102.39787,694.875,102.37999,694.8753C101.433334,694.9293,101.35564,695.0095,102.067856,695.11694C102.58275,695.2274,103.142624,695.6925,103.348495,696.24207C103.5917,696.78625,104.06535,697.17163,104.496544,697.17163C104.50026,697.17163,104.50397,697.17163,104.507675,697.1716C104.51048,697.1715,104.5133,697.1715,104.51613,697.1715C104.911385,697.1715,105.5431,697.5938,105.90428,698.13696C106.26592,698.6809,106.78187,699.1054,107.09811,699.1054C107.09991,699.1054,107.10171,699.10535,107.1035,699.10535C107.10488,699.10535,107.10628,699.1053,107.10768,699.1053C107.386925,699.1053,108.09972,699.52673,108.65727,700.0289C109.21776,700.5334,110.331406,701.0689,111.122604,701.1751C111.91435,701.3208,112.86821,701.7403,113.30907,702.1677C113.709885,702.55634,114.74272,702.9746,115.61339,703.11914C116.483505,703.2241,117.51695,703.6819,117.87889,704.11053C118.27965,704.49915,119.234116,704.9581,120.025314,705.06433C120.81712,705.2101,121.92888,705.62714,122.52763,706.0521C123.125656,706.4377,124.59392,706.9282,125.7816,707.1468C127.0081,707.3252,128.75322,707.851,129.70647,708.231C130.63513,708.63947,132.16115,708.96387,133.33376,708.96387C133.36565,708.96387,133.39728,708.9636,133.42863,708.96313C133.49226,708.96216,133.55573,708.9617,133.61897,708.9617C135.6745,708.9617,137.5156,709.474,137.94737,710.1567C138.10887,710.39105,139.73192,710.6818,141.62938,710.8499C143.48741,711.0186,145.70421,711.4187,146.49907,711.7617C147.49187,712.1412,149.98381,712.458,153.5789,712.6394C157.29253,712.8189,159.62596,713.09875,160.6989,713.5559C161.85075,714.0119,164.61827,714.28503,172.12376,714.60345C177.47803,714.80817,180.08652,714.9245,182.49005,714.9245C185.37054,714.9245,187.9567,714.7574,194.62198,714.3748C202.78555,713.854,204.8743,713.62445,206.75839,712.92426C208.2891,712.34796,210.69107,711.9556,214.27902,711.6634C217.74905,711.4125,219.91489,711.0633,220.73697,710.61633C221.40244,710.2508,223.32968,709.7868,225.02371,709.5633C226.71774,709.3398,228.801,708.75494,229.66257,708.3074C230.64078,707.7396,231.93887,707.4433,233.32022,707.422C234.62265,707.40186,235.9603,707.10486,236.90018,706.6167C237.72232,706.16974,239.60825,705.58795,241.10373,705.2886C242.59982,705.0286,244.09225,704.53186,244.4432,704.2501C244.79355,703.9289,246.04977,703.4753,247.30905,703.219C248.52951,703.0028,249.8635,702.469,250.2521,702.06824C250.64066,701.6675,251.81735,701.1756,252.88058,701.0013C253.90427,700.8276,255.19998,700.37335,255.66751,699.9714C256.17447,699.5688,257.35123,699.0769,258.25717,698.94446C259.16245,698.77264,260.33914,698.28076,260.8461,697.8782C261.3525,697.4361,262.09756,697.1088,262.49222,697.1027C262.84744,697.0972,263.66953,696.6503,264.29306,696.1275C264.91666,695.6046,266.20932,694.95306,267.15225,694.66223C268.13467,694.37067,269.23123,693.80115,269.61984,693.4003C270.0084,692.99963,270.75278,692.6328,271.26584,692.6249C271.8184,692.6164,272.60233,692.249,273.02975,691.80817C273.45718,691.3674,274.47537,690.8384,275.3406,690.6277C276.16702,690.45703,277.2241,689.88806,277.65152,689.4472C278.11783,688.96625,279.09726,688.4775,279.8453,688.3475C280.59274,688.17804,281.29764,687.8119,281.41116,687.4943C281.5253,687.2162,282.42575,686.72864,283.40878,686.4766C284.3918,686.22455,285.37057,685.6963,285.56186,685.2986C285.75308,684.9008,286.57578,684.49335,287.4028,684.3622C288.30807,684.19025,289.09073,683.74396,289.3992,683.26556C289.66873,682.8271,290.25528,682.4627,290.68942,682.456C291.163,682.4488,291.59225,682.1263,291.7034,681.65094C291.8157,681.25433,292.24252,680.7741,292.63535,680.6496C293.06705,680.48505,293.4921,679.8863,293.60196,679.332C293.7112,678.7381,294.4465,677.77936,295.2261,677.1357C296.47446,676.169,296.90677,676.0439,299.8668,675.9982C302.39273,675.95917,303.49472,675.7448,304.6696,675.1346C305.60892,674.6069,307.49728,674.1829,309.70377,673.91205C311.63522,673.7244,313.75974,673.2574,314.38638,672.93195C315.05185,672.56635,316.46658,672.1497,317.52975,671.9754C318.67123,671.76044,319.9658,671.22723,320.58932,670.7044C321.21286,670.1817,322.11215,669.61505,322.6628,669.4881C323.1741,669.36176,323.60275,668.99994,323.59848,668.7236C323.5942,668.4473,324.10056,668.0053,324.72903,667.7983C325.35684,667.5517,326.0587,666.9882,326.32828,666.54974C326.55783,666.07245,326.98648,665.71063,327.30222,665.70575C327.65738,665.70026,328.4382,665.13556,329.1389,664.4931C329.79947,663.8118,330.65982,663.28534,331.05447,663.27936C331.48862,663.27264,331.80008,662.9914,331.79526,662.6757C331.78976,662.3205,332.0994,661.92096,332.49228,661.79645C332.845,661.6331,333.81894,660.789,334.59488,659.9086C335.3702,658.9887,336.3799,657.90717,336.8068,657.42694C337.27304,656.946,337.62094,656.46686,337.6185,656.309C337.61185,655.8748,340.7781,651.2862,341.09384,651.28143C341.25168,651.279,341.51462,650.40643,341.65598,649.3383C341.79745,648.2703,342.21274,647.0401,342.63956,646.55975C343.067,646.11896,343.5223,644.92755,343.70444,643.9378C343.88657,642.9482,344.2648,641.8765,344.53555,641.517C344.8458,641.1569,345.2629,640.0451,345.44504,639.0555C345.77402,637.35284,345.92953,637.19257,347.42258,636.73517C348.32602,636.445,349.4645,636.03265,349.9338,635.7491C350.40384,635.50494,351.93692,635.0866,353.31528,634.86786C354.733,634.6486,356.34323,634.11053,356.92923,633.7067C357.554,633.263,359.00815,632.84576,360.50546,632.6646C361.92447,632.52435,363.3392,632.1077,363.65073,631.8266C364.001,631.5053,365.02048,631.0555,365.92514,630.84406C366.82986,630.63275,367.8876,630.10333,368.27676,629.742C368.6259,629.34186,369.52505,628.7752,370.23068,628.44855C370.9368,628.16144,371.5209,627.6391,371.51663,627.36285C371.51175,627.0472,371.82205,626.6871,372.21487,626.56256C372.56827,626.43866,373.26584,625.5988,373.76553,624.7226C374.22574,623.8471,374.8068,623.1276,375.00412,623.1246C375.2015,623.1215,375.4625,622.13055,375.56265,620.94464C375.70224,619.75824,376.15396,618.33,376.54068,617.81085C376.92807,617.33124,377.3409,615.9432,377.44107,614.7574C377.5806,613.571,378.03232,612.14276,378.41788,611.5446C378.84286,610.946,379.25632,609.59735,379.3983,608.5688C379.50027,607.5013,379.95322,606.15204,380.3782,605.5534C381.343,604.1174,381.69797,598.9799,381.55124,589.4683C381.42758,581.4565,381.11783,579.2901,379.9155,578.1242C379.4747,577.69684,378.9451,576.63904,378.77444,575.8126C378.64328,574.9857,378.19333,573.9663,377.7919,573.5382C377.39053,573.1102,376.86594,572.3683,376.6218,571.8982C376.37857,571.39197,375.9034,571.0063,375.58762,571.0063C375.58563,571.0063,375.58368,571.00635,375.5817,571.00635C375.58002,571.00635,375.57834,571.0064,375.57666,571.0064C375.30054,571.0064,374.90448,570.6589,374.78012,570.2291C374.65576,569.7995,374.2987,569.45135,374.02313,569.45135C374.02145,569.45135,374.01978,569.4514,374.0181,569.4514L374.01505,569.4514C373.7354,569.4514,372.86163,568.8745,372.10416,568.21765C369.86234,566.19934,368.824,565.4259,367.67154,564.93054C367.0753,564.66345,366.59433,564.19714,366.58884,563.8419C366.58398,563.528,366.4236,563.25525,366.22778,563.25525L366.22452,563.25525C366.2208,563.2553,366.2171,563.2553,366.21338,563.2553C365.4272,563.2553,364.58618,561.97217,364.5674,560.7544C364.5339,558.58374,365.19693,558.0603,368.70468,557.6903C370.4388,557.50574,372.44492,557.0404,373.1887,556.6343C373.97195,556.2274,375.7419,555.8053,377.31876,555.6626C379.68436,555.46814,380.23447,555.30176,381.08817,554.3412C381.63156,553.7406,382.28604,552.6647,382.5914,551.9888C383.2374,550.36035,384.49057,549.70935,387.7615,549.34314C389.18057,549.20276,391.14658,548.6987,392.08768,548.2894C393.02817,547.8406,395.31064,547.3712,397.321,547.1824C399.8044,546.94653,401.10196,546.61084,401.7261,546.12744C402.23306,545.72485,403.52884,545.2706,404.592,545.0963C405.69467,544.9214,406.7153,544.5504,406.86832,544.2322C407.02133,543.91406,408.23813,543.46094,409.49734,543.2045C410.7961,542.9477,412.209,542.41266,412.67593,541.97125C413.10397,541.5699,414.28067,541.07806,415.30502,540.9438C416.3287,540.7701,417.70218,540.2358,418.4047,539.7116C419.06766,539.1882,419.81088,538.7425,420.00815,538.73944C420.20554,538.7365,420.86978,538.29193,421.5322,537.72906C422.15512,537.1668,422.93784,536.7204,423.25357,536.7155C423.5693,536.71075,424.19406,536.2669,424.65915,535.707C425.12424,535.14716,425.70956,534.7038,425.9858,534.6995C426.26212,534.69525,426.8486,534.331,427.23654,533.8908C427.6246,533.4505,428.52438,532.9234,429.1528,532.7164C429.56522,532.5868,430.5699,532.5307,431.83377,532.5307C435.0245,532.5307,439.86746,532.8882,441.00522,533.32306C441.6008,533.5507,443.77823,533.95135,445.7559,534.1972C448.28726,534.5135,449.75424,534.925,450.47318,535.4666C451.25363,536.0424,451.9941,536.2427,453.7157,536.2427C453.84387,536.2427,453.97748,536.2416,454.11697,536.23944C456.3666,536.20465,456.79892,536.0795,457.61368,535.1591C458.1642,534.5314,458.5227,534.30304,459.11417,534.30304C459.3146,534.30304,459.5418,534.3293,459.8123,534.37506C460.4857,534.52264,461.3594,534.86444,461.68002,535.17523C462.56113,535.99066,462.4575,539.5057,461.46658,541.8107C460.43753,544.1951,460.44003,546.9189,461.46207,549.19293C461.9108,550.13336,462.37296,551.9422,462.55038,553.2027C462.7277,554.4632,463.22324,555.87665,463.66592,556.42255C464.06906,556.96893,464.55856,557.98785,464.68845,558.7359C464.81845,559.48395,465.34738,560.50226,465.86777,560.96783C466.38815,561.43353,466.83322,562.13727,466.83932,562.5319C466.84543,562.9266,467.29172,563.7093,467.81454,564.33295C468.3367,564.91693,468.9039,565.85565,469.07034,566.4057C469.23666,566.9559,469.68298,567.73846,470.0844,568.16656C470.48572,568.59454,470.93512,569.5745,471.1045,570.3221C471.274,571.0695,471.76215,572.00946,472.16235,572.35846C472.5631,572.74713,473.01184,573.68756,473.18134,574.435C473.52115,576.08026,475.4319,578.1316,476.65607,578.1316C476.66168,578.1316,476.66727,578.13153,476.67285,578.1315L476.697,578.1315C479.63773,578.1315,480.4031,579.27277,481.15417,584.5759C481.51013,587.176,481.9322,588.9459,482.33356,589.374C482.6949,589.7632,483.18494,590.82153,483.43512,591.68604C483.68597,592.5902,484.17407,593.53,484.49414,593.8015C484.8141,594.0729,485.3017,594.9734,485.55133,595.7986C485.84033,596.62305,486.36865,597.6018,486.80835,597.9503C487.20905,598.33887,487.534,598.926,487.5395,599.28125C487.54498,599.6365,487.9912,600.41907,488.55286,601.0027C489.11456,601.58606,489.6811,602.48535,489.80804,603.036C489.9745,603.5862,490.50098,604.4464,491.0219,604.95166C491.5429,605.4568,491.98737,606.1211,491.99225,606.4369C491.99707,606.75256,492.36084,607.2997,492.761,607.6487C493.2013,608.03674,493.64636,608.74036,493.77258,609.2516C493.93896,609.80176,494.46497,610.62256,495.026,611.1666C495.58704,611.7107,496.03455,612.57227,496.0431,613.1249C496.05286,613.75635,496.33582,614.18616,496.8119,614.3367C497.2478,614.44836,497.77063,615.0719,498.0172,615.6997C498.22424,616.3658,498.58594,616.8723,498.78357,616.8723L498.78696,616.8723C499.02454,616.8723,499.5484,617.6522,499.99622,618.5906C500.48438,619.5304,501.12927,620.3889,501.44678,620.50244C501.80444,620.6549,502.08618,621.00574,502.09106,621.32153C502.09595,621.6372,502.38013,622.14624,502.7013,622.49646C503.583,623.3513,505.9591,626.3939,506.48743,627.3727C506.76907,627.8005,507.12833,628.1881,507.3652,628.1881L507.37134,628.1881C507.6107,628.1881,508.28592,628.6499,508.88464,629.23047C511.20593,631.5515,512.046,632.0865,513.64496,632.0865C513.81366,632.0865,513.9908,632.0805,514.17896,632.07007C514.46063,632.0523,514.70703,632.04193,514.92694,632.04193C516.0002,632.04193,516.4423,632.2887,517.2743,633.1277C517.9551,633.7488,518.4822,634.6487,518.4889,635.08276C518.4967,635.5958,518.8993,636.1028,519.4956,636.3701C520.05176,636.59827,520.4927,637.02576,520.49756,637.34143C520.50183,637.6178,520.9026,638.00635,521.4187,638.1957C521.8954,638.38574,522.61414,638.92725,522.9761,639.3561C523.3756,639.82074,523.9294,640.166,524.20734,640.166C524.20905,640.166,524.2107,640.16595,524.2124,640.16595L524.2157,640.16595C524.49493,640.16595,525.2893,640.7044,526.0067,641.32245C526.7245,641.9797,527.5962,642.47784,527.87634,642.47784L527.8799,642.47784C527.8823,642.4778,527.8848,642.4778,527.88727,642.4778C528.2025,642.4778,528.6362,642.7854,528.83875,643.2131C529.08154,643.6042,529.8783,644.0656,530.66943,644.1718C531.42175,644.3182,532.37573,644.7376,532.7765,645.12616C533.17773,645.5544,534.329,645.97076,535.6339,646.10846C536.8203,646.2482,538.40576,646.6579,539.1228,647.0811C539.9496,647.5336,541.3576,647.77826,542.5576,647.77826C543.4958,647.77826,544.3068,647.6287,544.61365,647.3122C544.7977,647.1223,544.99426,647.0307,545.2608,647.0307C545.50055,647.0307,545.79694,647.10486,546.1918,647.24835C546.7875,647.47614,547.9369,647.7741,548.6886,647.8809C549.4409,648.0273,550.8307,648.55853,551.74634,649.05756C552.8535,649.6747,553.3976,649.9388,553.65,649.9388C553.80615,649.9388,553.8507,649.83777,553.8479,649.6568C553.8369,648.94635,551.59265,646.7703,549.5985,645.4588C548.4031,644.72723,547.4436,643.9526,547.44116,643.7946C547.4381,643.59735,546.44775,643.3758,545.1836,643.3162C543.4446,643.18524,542.77,642.9587,542.1664,642.21796C539.4315,638.9442,538.38965,637.93384,536.5145,636.66016C535.36066,635.8903,534.24854,635.2771,534.047,635.2771L534.0424,635.2771C533.8022,635.2771,533.049,634.85583,532.2938,634.31714C531.54193,633.78076,530.5591,633.3645,530.0809,633.3645C530.07666,633.3645,530.0726,633.36456,530.0685,633.3646C530.0637,633.3647,530.0589,633.36475,530.0541,633.36475C529.5392,633.36475,528.67487,632.9466,528.07983,632.4083C527.48364,631.8688,526.65576,631.44965,526.2577,631.44965C526.2548,631.44965,526.25195,631.44965,526.24915,631.4497C526.24255,631.4498,526.23596,631.4498,526.22925,631.4498C525.4722,631.4498,523.94617,630.81,523.5477,630.34656C523.4269,630.19055,522.86816,629.8043,522.27014,629.4187C521.1942,628.7643,521.15234,628.60706,521.10535,625.568C521.0676,623.1211,520.85205,621.94006,520.03406,620.0973C519.4614,618.80347,519.00415,617.3104,518.9956,616.75793C518.98645,616.1659,518.5342,614.9884,518.0071,614.0886C517.47986,613.18884,516.9049,611.73706,516.73364,610.8712C516.56287,610.0448,516.11414,609.1044,515.7152,608.8342C515.35583,608.56323,514.9077,607.66223,514.73694,606.83594C514.6057,606.0089,514.1565,605.02893,513.7162,604.641C513.3154,604.25244,512.82715,603.3125,512.6571,602.52563C512.4872,601.7388,512.0365,600.6798,511.63452,600.21216C511.23193,599.7052,510.74365,598.76526,510.615,598.0962C510.4474,597.46716,509.87964,596.489,509.35864,595.9839C508.83752,595.47876,508.39014,594.61707,508.3816,594.0646C508.37305,593.51196,507.9254,592.6504,507.36438,592.10645C506.80347,591.5624,506.35583,590.7008,506.3485,590.2273C506.34058,589.7141,505.97437,589.0093,505.5348,588.66077C505.0946,588.2728,504.6089,587.4906,504.48132,586.9005C504.3142,586.3109,503.74597,585.29333,503.22375,584.7092C502.74036,584.0851,502.1726,583.10693,502.0061,582.5569C501.87866,581.9667,501.39417,581.2634,500.99512,580.9933C500.5962,580.72314,500.2732,580.2544,500.26892,579.97815C500.2567,579.18884,495.92242,574.59735,493.2859,572.58527C492.16736,571.7341,492.1261,571.6163,491.94806,567.7503C491.81244,564.0811,491.68793,563.6882,490.76624,562.7944C490.20447,562.2109,489.71753,561.3499,489.70966,560.83685C489.70172,560.3238,489.3349,559.5794,488.89465,559.19147C488.45447,558.8035,488.00623,557.9025,487.83746,557.1945C487.70807,556.4859,487.13916,555.4288,486.61755,554.8841C486.0954,554.3001,485.64716,553.399,485.63745,552.7675C485.6277,552.13605,485.2202,551.3134,484.65985,550.8088C484.13873,550.3035,483.57166,549.3649,483.44226,548.6563C483.27283,547.9089,482.82526,547.0473,482.38507,546.65936C481.98492,546.31024,481.49792,545.4493,481.3291,544.7413C481.16083,544.0728,480.71454,543.2901,480.3156,543.01996C479.9568,542.78864,479.47034,541.9671,479.34094,541.2585C479.1728,540.59,478.68512,539.68964,478.28503,539.3405C477.88428,538.95197,477.4348,537.972,477.26483,537.1849C477.09418,536.3586,476.646,535.4576,476.24707,535.1873C475.84814,534.9172,475.3988,533.9372,475.22504,532.9135C475.0915,531.92865,474.6828,531.02704,474.36523,530.9135C474.08716,530.7994,473.44287,529.98016,472.95526,529.0798C472.5077,528.2182,471.86224,527.32025,471.58356,527.1667C471.26538,527.0136,471.02063,526.5042,471.0146,526.10956C471.00793,525.67847,470.72995,525.32935,470.41684,525.32935C470.41467,525.32935,470.4125,525.32935,470.41034,525.3294C470.40814,525.32947,470.4059,525.32947,470.40372,525.32947C470.0497,525.32947,469.6128,524.9041,469.36963,524.3979C469.0848,523.8497,468.4849,523.34576,468.00943,523.2347C466.93954,522.9747,464.61215,520.52374,464.59872,519.65546C464.5939,519.33966,464.30722,518.67303,463.98355,518.16486C462.8116,516.4063,462.3851,509.2282,463.39536,508.18634C463.51193,508.0661,471.4831,507.86407,481.07422,507.75555C485.3823,507.71338,488.7167,507.68994,491.29437,507.68994C497.10062,507.68994,499.06717,507.80884,499.67316,508.10016C500.156,508.34637,500.8785,508.4682,501.66827,508.4682C501.98462,508.4682,502.31177,508.44867,502.6386,508.40973C502.99924,508.37134,503.3207,508.35178,503.60806,508.35178C504.357,508.35178,504.87424,508.48474,505.24945,508.76422C506.08868,509.42242,506.67706,511.74237,506.7641,514.82025C506.7818,515.9648,507.08246,517.53925,507.40973,518.28436C507.7376,519.0688,508.23932,520.877,508.498,522.2941C508.758,523.7902,509.29413,525.28204,509.73492,525.70953C510.1369,526.17694,510.62518,527.1169,510.75458,527.8255C510.92328,528.5335,511.45233,529.5518,511.97333,530.05695C512.4937,530.52264,512.9388,531.22626,512.94354,531.54205C512.9484,531.8577,513.3942,532.6009,513.9559,533.1844C514.51764,533.768,514.9639,534.5506,514.9705,534.9848C514.9766,535.37946,515.22015,535.8099,515.53766,535.9234C516.13336,536.15106,516.74493,537.40485,517.2094,539.3715C517.5254,540.76483,519.4247,542.5453,520.4449,542.5453C520.5192,542.5453,520.5889,542.5358,520.653,542.51605C520.7631,542.48114,520.8984,542.4645,521.04736,542.4645C521.4298,542.4645,521.903,542.5743,522.2753,542.7674C524.3454,543.8802,524.5883,544.2713,524.62177,546.44196C524.6668,549.3626,525.466,552.5478,526.34894,553.4816C526.7509,553.94916,527.2391,554.889,527.3691,555.637C527.5385,556.38446,528.1069,557.40216,528.62726,557.86786C529.1081,558.33417,529.55206,558.9589,529.55695,559.2747C529.5618,559.5904,530.0069,560.2941,530.56866,560.8776C531.1302,561.461,531.5771,562.28326,531.5832,562.6778C531.5899,563.1121,531.95306,563.6197,532.3514,563.8504C532.78864,564.04095,533.3138,564.82245,533.6016,565.56805C533.85004,566.3143,534.33466,567.0173,534.65216,567.1308C534.9698,567.2443,535.4532,567.8686,535.6607,568.53656C535.9066,569.1626,536.26904,569.7083,536.4668,569.7083L536.4704,569.7083C536.70795,569.7083,537.1902,570.3705,537.5572,571.1916C537.9245,571.9754,538.6514,573.0302,539.1724,573.53534C539.6534,574.00165,540.0585,574.6665,540.06323,574.9823C540.06805,575.29517,540.3437,575.5651,540.65607,575.5651C540.6588,575.5651,540.6616,575.5651,540.6644,575.56506C540.6667,575.565,540.66895,575.565,540.6712,575.565C541.02515,575.565,541.46173,575.99054,541.66626,576.5365C542.0775,577.5962,542.4789,578.0242,546.8076,582.2604L549.89404,585.2919L552.4595,585.2523C552.68115,585.2489,552.8884,585.247,553.08246,585.247C555.2722,585.247,555.7718,585.48865,556.15,586.49817C556.2726,586.8478,556.74225,587.1533,557.17255,587.1533C557.17725,587.1533,557.1819,587.15326,557.1865,587.1532C557.18994,587.15314,557.19336,587.15314,557.19684,587.15314C557.63385,587.15314,558.4612,587.57184,559.09546,588.0713C559.69543,588.5752,560.88745,589.06995,561.7186,589.21497C562.5105,589.36084,563.5039,589.77966,563.90466,590.1682C564.2654,590.51794,565.73413,591.048,567.119,591.2634C568.504,591.4789,569.93225,591.93066,570.3324,592.2798C570.78107,592.66034,572.69275,592.8458,574.6649,592.8458C576.9124,592.8458,579.2386,592.6049,579.56775,592.1373C580.0316,591.49854,583.2175,590.7388,585.8606,590.619L587.47815,590.55457L586.1315,590.25964C585.4186,590.11255,584.30554,589.6166,583.66675,589.15283C583.0758,588.6949,582.02637,588.3591,581.3918,588.3591C581.38275,588.3591,581.3738,588.35913,581.36487,588.35925C581.33453,588.35974,581.30414,588.36,581.2738,588.36C579.686,588.36,578.1061,587.72144,577.4728,586.8402C577.1525,586.414,576.6389,586.06854,576.3225,586.06854C576.3203,586.06854,576.3181,586.06854,576.3159,586.0686C576.3137,586.06866,576.31146,586.06866,576.3092,586.06866C575.9896,586.06866,575.24066,585.72705,574.6467,585.34424C574.048,584.9192,572.50024,584.3905,571.19434,584.1737C569.8876,583.9176,568.42065,583.50586,567.94214,583.1975C567.4242,582.88965,565.91895,582.55774,564.5752,582.45996C559.63513,582.1019,558.7175,581.4844,558.66943,578.36646C558.6494,577.0641,558.4418,576.3961,558.0841,576.2438C557.3694,575.9785,556.6285,574.01605,556.60284,572.35846C556.59186,571.648,556.2216,570.6668,555.8183,570.1204C555.3763,569.6141,554.88495,568.47675,554.7138,567.6109C554.54315,566.7845,554.01056,565.5295,553.52716,564.90533C553.00385,564.24225,552.47125,562.98724,552.29926,562.082C552.1668,561.1761,551.75946,560.35333,551.4814,560.2391C551.16376,560.12555,550.6768,559.2646,550.42474,558.28156C550.1728,557.2985,549.72516,556.4371,549.4471,556.32294C549.1696,556.2482,548.7233,555.46564,548.43414,554.64105C548.1452,553.81635,547.6163,552.79816,547.2149,552.3702C546.81354,551.9421,546.3671,551.1595,546.20087,550.6093C546.0345,550.05927,545.5881,549.2767,545.1867,548.8486C544.82477,548.42,544.3378,547.5589,544.20966,546.92926C544.04205,546.30023,543.4731,545.2431,542.9107,544.6202C542.388,543.99664,541.9411,543.1745,541.9344,542.7404C541.92834,542.34814,541.6889,541.9984,541.41473,541.9984C541.413,541.9984,541.4114,541.9985,541.4097,541.9985L541.4083,541.9985C541.12976,541.9985,540.08673,540.7924,539.07855,539.3105C537.8654,537.43427,536.9831,536.54,536.30975,536.3924C534.3691,535.9881,534.12616,535.5971,533.8747,532.0876C533.6359,529.4068,533.3857,528.5422,532.7432,527.8416C532.30133,527.33514,531.7753,526.51434,531.60895,525.9642C531.44257,525.4141,530.95734,524.67145,530.5573,524.3223C530.15656,523.9338,529.7077,522.9932,529.53766,522.20636C529.40765,521.4583,529.04095,520.7139,528.72345,520.6004C528.446,520.5257,528.0002,519.78253,527.71173,518.9975C527.4621,518.1723,526.8945,517.19415,526.53253,516.76544C526.13116,516.33746,525.6447,515.5159,525.51654,514.8863C525.3497,514.2967,524.9051,513.6325,524.5074,513.4412C524.1097,513.25006,523.62445,512.5074,523.49506,511.79877C523.32623,511.09076,522.75665,509.9942,522.23444,509.41022C521.7116,508.78668,521.2635,507.88556,521.2563,507.41205C521.24835,506.899,520.88214,506.19403,520.44183,505.80597C520.00165,505.4179,519.51276,504.43866,519.38165,503.61163C519.211,502.78522,518.76154,501.80524,518.3614,501.45624C517.9212,501.06818,517.3936,500.12897,517.1828,499.26373C516.93353,498.40234,516.4921,497.77908,516.1766,497.77908C516.17535,497.77908,516.17413,497.77908,516.1729,497.7791C516.168,497.77917,516.16315,497.77924,516.15826,497.77924C515.8487,497.77924,515.5785,497.62677,515.5749,497.39362C515.56757,496.92056,512.7248,493.89203,512.24603,493.89203L512.2443,493.89203C512.24255,493.89206,512.2407,493.89206,512.23895,493.89206C511.44464,493.89206,509.1627,491.2128,508.90704,489.95636C508.7376,489.20892,508.4096,488.4245,508.1303,488.23138C507.17096,487.45673,506.7155,486.08197,506.6839,484.02972C506.6656,482.84564,506.84528,481.69818,507.11725,481.41766C507.44104,481.08368,508.583,480.9173,510.01785,480.9173C511.5105,480.9173,513.32007,481.09735,514.8553,481.45612C515.9983,481.72806,516.6956,481.86526,517.40875,481.86526C518.1541,481.86526,518.91675,481.71536,520.22345,481.41266C521.75714,481.03387,524.7907,480.63177,526.95966,480.4798C529.68097,480.3194,531.3338,479.9781,532.2736,479.4898C533.44855,478.87958,534.6702,478.74237,540.9455,478.64557L548.2469,478.5329L549.3223,481.7138C549.9412,483.44122,550.53156,485.8797,550.7083,487.1009C550.88495,488.32184,551.3405,489.6966,551.7431,490.20355C552.14557,490.7105,552.63446,491.68988,552.8033,492.39777C552.9721,493.10577,553.3382,493.81073,553.6163,493.92487C553.9333,493.99884,554.37897,494.74213,554.6674,495.52728C554.9566,496.35175,555.483,497.2121,555.84186,497.44342C556.2408,497.71356,556.68524,498.37787,556.8116,498.8891C556.93854,499.43976,557.5046,500.2995,558.0655,500.8437C558.6265,501.38763,559.0711,502.05182,559.0754,502.3282C559.07965,502.60443,559.4422,503.07257,559.8405,503.30316C560.2789,503.5728,560.72516,504.3554,560.894,505.06342C561.0628,505.77142,561.54926,506.59296,561.9482,506.8631C562.30695,507.09442,562.873,507.95416,563.1213,508.70038C563.52515,509.8857,563.63324,510.0489,565.06067,510.0489C565.24115,510.0489,565.4427,510.04626,565.66864,510.0428C565.7493,510.04153,565.8282,510.0409,565.9053,510.0409C568.4683,510.0409,569.07446,510.75247,569.12115,513.77924C569.1413,515.0817,569.4401,516.5378,569.76447,517.0854C570.08856,517.633,570.65765,518.6901,571.02435,519.4345C571.3912,520.179,572.1192,521.31256,572.6414,521.89667C573.16425,522.5202,573.61127,523.34235,573.61725,523.737C573.62335,524.13165,573.9057,524.52203,574.2238,524.675C574.54144,524.7885,575.06366,525.37274,575.34906,525.9605C575.59503,526.54877,576.2404,527.44684,576.762,527.9914C577.2436,528.49713,577.64984,529.2409,577.65594,529.63556C577.6626,530.0664,577.93945,530.37634,578.25226,530.37634C578.2547,530.37634,578.25714,530.37634,578.2596,530.3763C578.2615,530.3763,578.2634,530.3762,578.2654,530.3762C578.58105,530.3762,579.05634,530.76184,579.299,531.2288C579.5832,531.73773,580.67206,533.221,581.75824,534.54645C582.80524,535.8725,583.69354,537.16144,583.6966,537.3588C583.69965,537.5562,584.14044,537.9836,584.6984,538.33026C585.25653,538.67706,585.69794,539.144,585.701,539.34125C585.71136,540.0117,593.9215,548.2835,594.60144,548.2835L594.60535,548.2835C594.80426,548.2835,595.2813,548.6304,595.7602,549.09467C596.1424,549.4653,596.4259,549.6459,596.6616,549.6459C596.7967,549.6459,596.916,549.5867,597.02924,549.4699C597.30853,549.1817,597.9279,549.0212,598.4805,549.0212C598.9271,549.0212,599.3302,549.12604,599.47485,549.3532C599.5963,549.54877,600.23206,549.81525,600.86597,549.9633C601.5394,550.1108,602.25635,550.5341,602.45984,550.9257C602.70337,551.35614,603.619,551.85516,604.57056,552.1169C605.48193,552.33966,606.79224,552.8327,607.4298,553.2176C608.1062,553.56244,609.49426,553.9753,610.56226,554.11664C611.62976,554.21857,613.13684,554.6691,613.854,555.09235C614.7506,555.6117,615.9472,555.86237,617.20984,555.86237C618.7517,555.86237,620.392,555.4886,621.70496,554.77374C622.72253,554.2055,624.255,553.7475,625.1621,553.69403L626.77966,553.6297L625.03467,553.1038C624.08325,552.8422,623.00964,552.34564,622.64954,552.03534C622.28955,551.72504,621.53357,551.342,620.90027,551.23334C620.3058,551.08453,619.588,550.622,619.30566,550.2315C619.02344,549.8411,617.9104,549.34503,616.84106,549.1247C615.7323,548.90497,614.58044,548.44904,614.1803,548.0999C613.7401,547.712,612.1953,547.38043,610.0216,547.2166C607.29407,546.98236,606.2632,546.68243,605.0663,545.8719C603.07227,544.5605,603.0309,544.4427,602.6714,541.6059C602.49097,540.14813,602.07495,538.7729,601.5509,538.07025C601.10706,537.4455,600.61523,536.26874,600.4446,535.44244C600.31335,534.6154,599.9065,533.8322,599.6283,533.7181C599.3108,533.60455,598.82446,532.783,598.5742,531.9184C598.32336,531.0142,597.6731,529.8005,597.1503,529.17694C596.6275,528.5534,596.1812,527.7708,596.1751,527.37616C596.169,526.9814,595.80414,526.3554,595.404,526.0064C594.9637,525.6182,594.47723,524.7968,594.34906,524.1672C594.18146,523.53815,593.7365,522.8344,593.3388,522.6431C592.90094,522.41315,592.45465,521.63043,592.2851,520.883C592.1546,520.0955,591.7083,519.3129,591.3106,519.1215C590.9123,518.8908,590.4301,518.34564,590.26495,517.87445C590.09906,517.36383,589.5721,516.4639,589.04987,515.87994C588.52704,515.2564,588.08,514.43414,588.0739,514.0395C588.0672,513.6053,587.7043,513.0977,587.2664,512.8676C586.8287,512.63763,586.185,511.85797,585.857,511.07355C585.5297,510.32855,585.0057,509.62604,584.64874,509.513C584.3311,509.39948,584.0494,509.04852,584.0445,508.73285C584.0396,508.41705,583.59564,507.7923,583.0358,507.32733C582.476,506.86224,582.03217,506.2375,582.0279,505.96124C582.0236,505.68488,581.62286,505.29633,581.1462,505.10626C580.63007,504.9168,579.9123,504.45416,579.55035,504.02557C579.18915,503.6364,578.5887,503.09296,578.2686,502.8216C577.82904,502.47296,577.61884,501.64716,577.5927,499.95013C577.56586,498.21356,577.39764,497.5451,576.9611,497.39386C576.6435,497.28033,576.15717,496.45892,575.8669,495.55536C575.5772,494.69147,574.96747,493.55597,574.4472,493.0904C573.9262,492.58502,573.5224,491.9992,573.5181,491.72284C573.51447,491.48615,573.0693,490.7824,572.50653,490.12006C571.94415,489.497,571.49664,488.63556,571.4899,488.20135C571.4832,487.76727,571.20026,487.33734,570.8826,487.22382C570.5645,487.07074,569.91974,486.21222,569.5103,485.27106C569.0626,484.33282,568.53876,483.5528,568.30115,483.5528L568.298,483.5528C568.10004,483.5528,567.69775,482.9681,567.45,482.22382C567.2016,481.47748,566.75653,480.77374,566.4389,480.66022C566.1214,480.5467,565.6751,479.7641,565.38544,478.9001C565.096,477.99936,564.6528,477.29715,564.3762,477.29715C564.37537,477.29715,564.3746,477.29718,564.3737,477.29718C564.3728,477.29718,564.3718,477.2972,564.3709,477.2972C564.0945,477.2972,563.6529,476.67404,563.40533,475.93036C563.15753,475.18594,562.75446,474.56183,562.5566,474.56183L562.5538,474.56183C562.35565,474.56183,561.8729,473.8993,561.4665,473.07855C561.09906,472.29462,560.45355,471.39655,560.09406,471.1258C559.6951,470.85565,559.372,470.3869,559.36847,470.1501C559.3642,469.87384,558.8802,469.21017,558.2791,468.6274C557.6391,468.08456,556.6766,467.1124,556.0749,466.49008C554.2308,464.6633,552.75104,463.4227,551.91486,462.962C551.3581,462.69418,550.95245,461.98996,550.77875,460.96628C550.5168,459.31442,548.25195,455.4494,547.5777,455.4494C547.5768,455.4494,547.5759,455.44943,547.575,455.44943C547.574,455.44946,547.57294,455.44946,547.5719,455.44946C547.33167,455.44946,546.5787,455.0282,545.90265,454.52768C545.1036,453.90842,543.7946,453.49448,542.4891,453.3171C541.3033,453.217,539.83624,452.8054,539.15924,452.4211C538.3625,451.9597,536.3837,451.63486,533.3404,451.4056C530.7714,451.20834,528.35834,450.89023,528.0002,450.69846C527.60236,450.50717,526.41364,450.20956,525.3067,450.10825C522.3399,449.71982,520.75275,449.19174,520.7017,448.44247C520.60333,447.18063,520.79144,446.58566,521.5291,445.78464C522.18976,445.10336,522.8194,444.9752,525.7399,444.93015C530.2386,444.82138,536.5004,443.8563,537.279,443.13364C537.62933,442.81247,539.00397,442.3569,540.3421,442.09946C541.7994,441.8796,543.055,441.38644,543.5213,440.9056C543.90985,440.50485,544.88934,440.01596,545.6374,439.88596C546.3848,439.71652,547.0898,439.35043,547.2033,439.03293C547.31683,438.7153,547.74725,438.47177,548.2209,438.46445C548.2253,438.4644,548.22974,438.46436,548.2342,438.46436C549.4963,438.46436,551.26556,441.23007,551.8193,443.9752C552.07684,445.31332,552.5323,446.68796,552.814,447.0389C553.1352,447.38925,553.6241,448.36874,553.91376,449.23276C554.2034,450.09677,554.8537,451.31052,555.37604,451.8945C555.89886,452.51816,556.3427,453.1429,556.34576,453.34018C556.3487,453.53757,556.7957,454.3596,557.3604,455.1406C557.9251,455.92136,558.37445,456.90134,558.38055,457.296C558.3872,457.7264,558.6635,458.03616,559.0144,458.03616C559.01746,458.03616,559.0205,458.03616,559.0236,458.0361C559.02637,458.03607,559.0291,458.03604,559.03186,458.03604C559.3844,458.03604,559.74054,458.3834,559.8641,458.77316C559.9892,459.20554,560.58905,459.70956,561.2242,459.9366C561.8586,460.1241,562.37775,460.51083,562.3814,460.74765C562.3851,460.98447,562.82477,461.33298,563.3415,461.56186C564.4151,462.05856,565.59247,464.1721,565.6169,465.75082C565.63995,467.25058,566.7907,470.19342,567.67365,471.12738C568.075,471.55536,568.56134,472.3769,568.6889,472.9671C568.85596,473.5941,569.13824,474.06244,569.33545,474.06244L569.3387,474.06244C569.6966,474.06244,571.307,476.24533,572.52167,478.31622C572.846,478.86383,573.4909,479.72235,573.9322,480.18927C574.3737,480.6563,575.0976,481.5136,575.5402,482.0594C578.8842,486.42926,582.80743,489.96112,584.5883,490.24945C585.34064,490.3957,586.29266,490.69684,586.7305,490.92694C587.1689,491.19647,588.2807,491.6136,589.15265,491.83698C590.06464,492.0993,591.0192,492.55817,591.30035,492.8698C591.64355,493.2691,592.4434,493.40216,594.6365,493.40216C595.0112,493.40216,595.42676,493.3983,595.88763,493.39117C598.41345,493.35223,599.9896,493.16986,599.9861,492.93304C599.9824,492.69635,600.60657,492.21295,601.35095,491.84625L602.7219,491.154L601.45105,490.66034C600.73584,490.35553,600.01807,489.89288,599.8561,489.61908C599.69385,489.34528,598.81836,488.88507,597.8668,488.62347C596.91534,488.36163,596.0015,487.98102,595.76166,487.7874C595.5682,487.63733,594.93,487.49423,594.31616,487.49423C594.2964,487.49423,594.2767,487.4944,594.257,487.4947C594.24646,487.49484,594.23584,487.49493,594.2251,487.49493C592.9167,487.49493,590.60364,486.28046,590.23737,485.38556C590.11346,485.03217,589.8936,483.5749,589.7133,482.11713C589.53033,480.5014,589.15326,479.086,588.6694,478.42242C588.226,477.8371,587.77545,476.77826,587.6066,476.07025C587.47723,475.3615,586.90765,474.26495,586.38544,473.68097C585.90216,473.05682,585.45526,472.23468,585.44855,471.8006C585.44183,471.3664,584.993,470.42584,584.4296,469.72406C583.866,469.02206,583.4191,468.19992,583.41364,467.84482C583.40875,467.52902,582.96173,466.70688,582.39777,465.96555C581.8337,465.2242,581.38544,464.3232,581.37933,463.92856C581.3732,463.5339,580.9301,462.94858,580.41156,462.60117C579.85406,462.29404,579.28876,461.47372,579.1606,460.8441C578.99286,460.21506,578.4677,459.4337,577.94916,459.0864C577.4312,458.77853,576.9478,458.15427,576.8233,457.76144C576.69904,457.33218,576.3425,456.98428,576.0283,456.98428C576.0261,456.98428,576.024,456.9843,576.0218,456.98434C576.0193,456.98438,576.01685,456.9844,576.01434,456.9844C575.0285,456.9844,573.72375,453.97086,573.11615,450.31808C572.722,447.7977,572.30963,446.65927,571.70856,446.0764C571.2276,445.61008,570.8201,444.78732,570.8122,444.27426C570.80365,443.72177,570.4776,443.05576,570.0787,442.78537C569.6403,442.51584,569.11383,441.6555,568.82526,440.87045C568.57635,440.0848,567.9692,439.10727,567.56903,438.75815C567.1287,438.3702,566.76373,437.74423,566.75824,437.389C566.75275,437.03378,566.30536,436.1721,565.74115,435.43076C565.17706,434.68942,564.7308,433.90683,564.7265,433.63046C564.72284,433.39377,564.2808,432.8873,563.72284,432.54074C563.16473,432.19394,562.7233,431.72702,562.71967,431.4902C562.71295,431.05612,561.9089,430.12106,558.41986,426.5825C556.97723,425.1837,556.28973,424.12827,556.27936,423.45737C556.27094,422.90488,555.8222,421.96432,555.2592,421.30197C554.69696,420.67905,554.25055,419.89633,554.2464,419.6201C554.2415,419.3043,553.83954,418.83688,553.36237,418.6074C552.8449,418.33896,552.2857,417.9133,552.0446,417.64072C551.8437,417.40695,549.6619,416.73007,547.24603,416.2147C544.5606,415.62173,542.1286,415.32352,539.72516,415.32352C537.34247,415.32352,534.9878,415.6166,532.4421,416.20615C530.06134,416.73648,528.664,417.0048,527.6968,417.0048C526.73004,417.0048,526.1931,416.73672,525.5335,416.1943C524.49335,415.30246,524.4515,415.14523,524.4385,411.7503C524.48926,407.3676,525.02783,406.45135,527.8209,405.8161C528.8834,405.60236,530.1378,405.03033,530.5653,404.58954C530.9927,404.14862,532.7062,402.62213,534.3418,401.17572C536.0177,399.76825,537.45544,398.28534,537.56775,397.88885C537.68005,397.49237,538.18335,396.85297,538.6898,396.41083C539.2362,396.00775,539.81604,395.2093,540.0437,394.6136C540.2324,394.05804,540.5803,393.57892,540.81714,393.57526C541.0145,393.5722,541.4396,392.97345,541.745,392.29767C542.01025,391.58295,542.62585,390.54718,543.09155,390.0268C543.5178,389.50702,543.90283,388.86945,543.89856,388.59308C543.8949,388.35638,544.3198,387.75763,544.865,387.27545C545.4103,386.79327,545.8347,386.1552,545.82983,385.83954C545.82495,385.52374,546.24695,384.72772,546.7897,384.0877C547.3319,383.40814,547.7539,382.61212,547.749,382.29633C547.74414,381.98065,548.04956,381.30487,548.4757,380.78497C548.8624,380.2658,549.31726,379.03522,549.45984,378.04608C549.60254,377.05695,550.09375,375.6281,550.5952,374.8703C551.05725,374.1131,551.54724,372.6054,551.6886,371.5374C551.7905,370.4699,552.2423,369.04193,552.6654,368.32477C553.281,367.28888,553.4242,366.33917,553.3834,363.6949C553.3384,360.77435,553.21155,360.22357,552.3251,359.05304C551.76086,358.31158,551.31335,357.45,551.30786,357.0948C551.303,356.7791,551.0156,356.07294,550.6533,355.6048C550.04785,354.74567,550.08484,354.58722,551.0095,353.11224C551.58887,352.27435,552.2488,351.55368,552.525,351.5494C553.4717,351.49533,555.0222,349.65536,555.27734,348.26987C555.3834,347.47873,555.91956,346.4045,556.4241,345.8441C557.16125,345.00363,557.34766,344.29013,557.49927,341.32712C557.58716,339.3519,557.94653,337.05673,558.28894,336.22238C558.7832,334.99106,558.8723,333.09482,558.8539,326.7789C558.78674,319.87143,558.68896,318.64914,558.03735,317.3564C557.6293,316.49423,557.11914,314.1335,556.84717,311.8481C556.57007,309.24692,556.14624,307.3586,555.57837,306.38046C555.13086,305.5189,554.67114,303.868,554.5344,302.68564C554.2217,300.32187,554.22107,300.28244,549.68994,295.7336C548.0864,294.13986,546.7589,292.54172,546.7534,292.1865C546.73584,291.04196,548.0497,289.20578,549.07214,288.95322C549.62305,288.82626,550.4828,288.26022,550.9879,287.73938C551.49243,287.17896,552.391,286.57288,552.9794,286.3269C553.8822,285.99707,554.11414,285.67773,554.2866,284.05664C554.428,282.98853,554.84204,281.67944,555.2677,281.12024C555.7322,280.52087,556.1067,279.21228,556.2433,277.8285C556.34155,276.5243,556.7489,274.781,557.13025,273.90662C557.5115,273.03235,557.9923,270.93262,558.1633,269.23254C558.3722,267.41333,558.782,265.828,559.1699,265.3877C559.5968,264.90735,559.8512,263.4823,560.04956,260.9922C560.1752,258.89795,560.5758,256.72058,560.92004,256.00476C561.648,254.57236,562.1298,247.41965,561.6596,245.09775C561.4034,243.83847,561.20306,243.64413,559.8969,243.42746C556.88947,242.96056,555.6198,242.546,554.49896,241.53697C553.4582,240.60545,553.37506,240.33043,553.58624,238.6693C553.6882,237.60179,554.0689,236.68797,554.42035,236.44566C554.81146,236.20274,555.4344,235.64049,555.86115,235.16014C556.28815,234.6798,557.22614,234.07323,557.97174,233.78539C558.6785,233.53758,559.2651,233.1732,559.262,232.97594C559.2596,232.8181,559.80536,232.37535,560.43134,232.01048C561.3317,231.52281,561.6021,231.12389,561.5887,230.2556C561.5789,229.62413,561.9194,228.6715,562.384,228.07213C563.0804,227.15343,563.2229,226.16429,563.45593,220.79198C563.6008,217.39478,564.042,212.72961,564.4415,210.47327C565.02246,207.18774,565.14185,204.69885,565.0311,197.51587C564.89465,188.67519,564.89465,188.67519,563.88794,187.38795C563.32446,186.68617,562.8775,185.86403,562.8726,185.54836C562.85736,184.56166,561.6121,183.15956,560.2222,182.62843C558.9908,182.13417,558.8693,181.93861,558.84503,180.36C558.8212,178.8207,558.9736,178.46303,560.106,177.65614C561.7065,176.48659,562.5971,175.36745,562.8953,174.21815C563.0058,173.70326,563.4276,172.90724,563.8163,172.50636C564.8635,171.30592,564.95337,169.44911,564.5691,157.33572C564.27905,148.77371,563.9905,145.42276,563.3905,142.35281C562.9229,140.18889,562.3471,136.13164,562.0671,133.33318C561.73846,129.94304,561.31024,127.77849,560.8221,126.83855C560.4152,126.05534,559.9604,124.72014,559.8675,123.813644C559.60394,122.01097,558.0499,120.14981,556.82916,120.14981C556.823,120.14981,556.8169,120.149864,556.8107,120.149956C556.7887,120.1503,556.7666,120.15047,556.74457,120.15047C555.3482,120.15047,554.03253,119.46881,553.7474,118.61822C553.2507,117.125786,553.8134,115.22222,554.87164,114.73211C555.4206,114.48687,555.84735,114.00652,555.8432,113.73028C555.8383,113.41448,556.10175,112.581474,556.446,111.86553C556.82904,111.10955,557.1539,109.13067,557.24066,107.0766C557.3521,104.074646,557.2636,103.4444,556.6612,102.78253C556.2598,102.35455,555.7618,100.78314,555.4576,98.971985C555.1551,97.27911,554.6102,95.23467,554.2429,94.45074C553.8756,93.66692,553.41516,91.976616,553.2772,90.715385C553.09753,89.29706,552.6846,88.1192,552.203,87.61334C551.7208,87.06818,551.348,85.92914,551.1676,84.47113C550.98486,82.85541,550.6946,81.951965,550.1754,81.56525C549.7357,81.216736,549.2871,80.276184,549.1157,79.41035C548.9845,78.58344,548.41187,77.2895,547.8873,76.547554C547.4021,75.80488,546.9546,74.943306,546.9503,74.66706C546.9381,73.877754,543.718,69.861275,542.8856,69.637276C542.4885,69.48554,541.85156,69.14009,541.5303,68.78975C540.72876,68.01253,541.1245,65.519485,542.1786,64.75313C542.80273,64.26973,542.9144,63.833817,542.723,61.665604C542.5762,59.812458,542.32654,58.987263,541.84924,58.75777C541.49097,58.565998,541.0841,57.782673,540.9147,57.035236C540.7854,56.32674,540.1356,55.152306,539.49316,54.451622C538.8506,53.75106,538.3242,52.89071,538.3181,52.496056C538.312,52.10128,537.9508,51.71212,537.5536,51.560387C537.1571,51.44796,536.6749,50.902794,536.5486,50.391567C536.38324,49.8445,536.0245,49.41765,535.7101,49.41765C535.70825,49.41765,535.7065,49.417664,535.7047,49.41769C535.7022,49.41773,535.69977,49.417747,535.69727,49.417747C535.3439,49.417747,534.94727,49.03107,534.7434,48.5245C534.5388,48.054043,533.4519,46.689053,532.3285,45.52206C531.2051,44.355194,530.1985,43.06784,530.03503,42.715057C529.91113,42.361786,529.47034,41.934296,529.07385,41.82199C528.67737,41.709686,528.197,41.28293,528.0725,40.889984C527.948,40.49716,527.46655,39.99143,526.95044,39.802097C526.1155,39.420017,524.87744,38.491795,522.83594,36.66782C522.27924,36.205296,521.60657,35.822693,521.32733,35.822693C521.3258,35.822693,521.3243,35.822704,521.32275,35.822727C521.32135,35.82275,521.31995,35.822758,521.31854,35.822758C521.0377,35.822758,520.16766,35.40382,519.4137,34.90476C518.6559,34.403175,517.385,33.909645,516.6328,33.763283C515.8811,33.65647,514.92664,33.197487,514.5653,32.808327C514.1238,32.341408,512.8541,31.926735,511.23108,31.635963C509.7672,31.421608,508.30322,31.207497,507.9862,31.1334C507.90454,31.116571,507.79745,31.108656,507.6691,31.108656 Z"></path> </g> </g> </svg></svg></g></svg>